<?xml version="1.0" encoding="utf-8" standalone="no"?>
<!DOCTYPE svg PUBLIC "-//W3C//DTD SVG 1.1//EN"
  "http://www.w3.org/Graphics/SVG/1.1/DTD/svg11.dtd">
<svg xmlns:xlink="http://www.w3.org/1999/xlink" width="432pt" height="288pt" viewBox="0 0 432 288" xmlns="http://www.w3.org/2000/svg" version="1.1">
 <metadata>
  <rdf:RDF xmlns:dc="http://purl.org/dc/elements/1.1/" xmlns:cc="http://creativecommons.org/ns#" xmlns:rdf="http://www.w3.org/1999/02/22-rdf-syntax-ns#">
   <cc:Work>
    <dc:type rdf:resource="http://purl.org/dc/dcmitype/StillImage"/>
    <dc:date>2023-08-18T11:38:56.642841</dc:date>
    <dc:format>image/svg+xml</dc:format>
    <dc:creator>
     <cc:Agent>
      <dc:title>Matplotlib v3.5.1, https://matplotlib.org/</dc:title>
     </cc:Agent>
    </dc:creator>
   </cc:Work>
  </rdf:RDF>
 </metadata>
 <defs>
  <style type="text/css">*{stroke-linejoin: round; stroke-linecap: butt}</style>
 </defs>
 <g id="figure_1">
  <g id="patch_1">
   <path d="M 0 288 
L 432 288 
L 432 0 
L 0 0 
z
" style="fill: #ffffff"/>
  </g>
  <g id="axes_1">
   <g id="patch_2">
    <path d="M 47.8 260.2 
L 421.2 260.2 
L 421.2 10.91589 
L 47.8 10.91589 
z
" style="fill: #ffffff"/>
   </g>
   <g id="matplotlib.axis_1">
    <g id="xtick_1">
     <g id="line2d_1">
      <path d="M 75.876381 260.2 
L 75.876381 10.91589 
" clip-path="url(#pb5f7db7224)" style="fill: none; stroke: #cccccc; stroke-width: 0.8; stroke-linecap: round"/>
     </g>
     <g id="text_1">
      <text style="fill: #262626; font: 10px 'Linux Libertine'; text-anchor: middle" x="75.876381" y="274.798437" transform="rotate(-0, 75.876381, 274.798437)">S3</text>
     </g>
    </g>
    <g id="xtick_2">
     <g id="line2d_2">
      <path d="M 139.325828 260.2 
L 139.325828 10.91589 
" clip-path="url(#pb5f7db7224)" style="fill: none; stroke: #cccccc; stroke-width: 0.8; stroke-linecap: round"/>
     </g>
     <g id="text_2">
      <text style="fill: #262626; font: 10px 'Linux Libertine'; text-anchor: middle" x="139.325828" y="274.798437" transform="rotate(-0, 139.325828, 274.798437)">EFS</text>
     </g>
    </g>
    <g id="xtick_3">
     <g id="line2d_3">
      <path d="M 202.775276 260.2 
L 202.775276 10.91589 
" clip-path="url(#pb5f7db7224)" style="fill: none; stroke: #cccccc; stroke-width: 0.8; stroke-linecap: round"/>
     </g>
     <g id="text_3">
      <text style="fill: #262626; font: 10px 'Linux Libertine'; text-anchor: middle" x="202.775276" y="274.798437" transform="rotate(-0, 202.775276, 274.798437)">DynamoDB</text>
     </g>
    </g>
    <g id="xtick_4">
     <g id="line2d_4">
      <path d="M 266.224724 260.2 
L 266.224724 10.91589 
" clip-path="url(#pb5f7db7224)" style="fill: none; stroke: #cccccc; stroke-width: 0.8; stroke-linecap: round"/>
     </g>
     <g id="text_4">
      <text style="fill: #262626; font: 10px 'Linux Libertine'; text-anchor: middle" x="266.224724" y="274.798437" transform="rotate(-0, 266.224724, 274.798437)">Redis</text>
     </g>
    </g>
    <g id="xtick_5">
     <g id="line2d_5">
      <path d="M 329.674172 260.2 
L 329.674172 10.91589 
" clip-path="url(#pb5f7db7224)" style="fill: none; stroke: #cccccc; stroke-width: 0.8; stroke-linecap: round"/>
     </g>
     <g id="text_5">
      <text style="fill: #262626; font: 10px 'Linux Libertine'; text-anchor: middle" x="329.674172" y="274.798437" transform="rotate(-0, 329.674172, 274.798437)">Relay</text>
     </g>
    </g>
    <g id="xtick_6">
     <g id="line2d_6">
      <path d="M 393.123619 260.2 
L 393.123619 10.91589 
" clip-path="url(#pb5f7db7224)" style="fill: none; stroke: #cccccc; stroke-width: 0.8; stroke-linecap: round"/>
     </g>
     <g id="text_6">
      <text style="fill: #262626; font: 10px 'Linux Libertine'; text-anchor: middle" x="393.123619" y="274.798437" transform="rotate(-0, 393.123619, 274.798437)">P2P</text>
     </g>
    </g>
   </g>
   <g id="matplotlib.axis_2">
    <g id="ytick_1">
     <g id="line2d_7">
      <path d="M 47.8 260.2 
L 421.2 260.2 
" clip-path="url(#pb5f7db7224)" style="fill: none; stroke: #cccccc; stroke-width: 0.8; stroke-linecap: round"/>
     </g>
     <g id="text_7">
      <text style="fill: #262626; font: 10px 'Linux Libertine'; text-anchor: end" x="40.8" y="263.999219" transform="rotate(-0, 40.8, 263.999219)">0.0</text>
     </g>
    </g>
    <g id="ytick_2">
     <g id="line2d_8">
      <path d="M 47.8 229.596104 
L 421.2 229.596104 
" clip-path="url(#pb5f7db7224)" style="fill: none; stroke: #cccccc; stroke-width: 0.8; stroke-linecap: round"/>
     </g>
     <g id="text_8">
      <text style="fill: #262626; font: 10px 'Linux Libertine'; text-anchor: end" x="40.8" y="233.395322" transform="rotate(-0, 40.8, 233.395322)">0.2</text>
     </g>
    </g>
    <g id="ytick_3">
     <g id="line2d_9">
      <path d="M 47.8 198.992207 
L 421.2 198.992207 
" clip-path="url(#pb5f7db7224)" style="fill: none; stroke: #cccccc; stroke-width: 0.8; stroke-linecap: round"/>
     </g>
     <g id="text_9">
      <text style="fill: #262626; font: 10px 'Linux Libertine'; text-anchor: end" x="40.8" y="202.791426" transform="rotate(-0, 40.8, 202.791426)">0.4</text>
     </g>
    </g>
    <g id="ytick_4">
     <g id="line2d_10">
      <path d="M 47.8 168.388311 
L 421.2 168.388311 
" clip-path="url(#pb5f7db7224)" style="fill: none; stroke: #cccccc; stroke-width: 0.8; stroke-linecap: round"/>
     </g>
     <g id="text_10">
      <text style="fill: #262626; font: 10px 'Linux Libertine'; text-anchor: end" x="40.8" y="172.187529" transform="rotate(-0, 40.8, 172.187529)">0.6</text>
     </g>
    </g>
    <g id="ytick_5">
     <g id="line2d_11">
      <path d="M 47.8 137.784414 
L 421.2 137.784414 
" clip-path="url(#pb5f7db7224)" style="fill: none; stroke: #cccccc; stroke-width: 0.8; stroke-linecap: round"/>
     </g>
     <g id="text_11">
      <text style="fill: #262626; font: 10px 'Linux Libertine'; text-anchor: end" x="40.8" y="141.583633" transform="rotate(-0, 40.8, 141.583633)">0.8</text>
     </g>
    </g>
    <g id="ytick_6">
     <g id="line2d_12">
      <path d="M 47.8 107.180518 
L 421.2 107.180518 
" clip-path="url(#pb5f7db7224)" style="fill: none; stroke: #cccccc; stroke-width: 0.8; stroke-linecap: round"/>
     </g>
     <g id="text_12">
      <text style="fill: #262626; font: 10px 'Linux Libertine'; text-anchor: end" x="40.8" y="110.979736" transform="rotate(-0, 40.8, 110.979736)">1.0</text>
     </g>
    </g>
    <g id="ytick_7">
     <g id="line2d_13">
      <path d="M 47.8 76.576621 
L 421.2 76.576621 
" clip-path="url(#pb5f7db7224)" style="fill: none; stroke: #cccccc; stroke-width: 0.8; stroke-linecap: round"/>
     </g>
     <g id="text_13">
      <text style="fill: #262626; font: 10px 'Linux Libertine'; text-anchor: end" x="40.8" y="80.37584" transform="rotate(-0, 40.8, 80.37584)">1.2</text>
     </g>
    </g>
    <g id="ytick_8">
     <g id="line2d_14">
      <path d="M 47.8 45.972725 
L 421.2 45.972725 
" clip-path="url(#pb5f7db7224)" style="fill: none; stroke: #cccccc; stroke-width: 0.8; stroke-linecap: round"/>
     </g>
     <g id="text_14">
      <text style="fill: #262626; font: 10px 'Linux Libertine'; text-anchor: end" x="40.8" y="49.771944" transform="rotate(-0, 40.8, 49.771944)">1.4</text>
     </g>
    </g>
    <g id="ytick_9">
     <g id="line2d_15">
      <path d="M 47.8 15.368828 
L 421.2 15.368828 
" clip-path="url(#pb5f7db7224)" style="fill: none; stroke: #cccccc; stroke-width: 0.8; stroke-linecap: round"/>
     </g>
     <g id="text_15">
      <text style="fill: #262626; font: 10px 'Linux Libertine'; text-anchor: end" x="40.8" y="19.168047" transform="rotate(-0, 40.8, 19.168047)">1.6</text>
     </g>
    </g>
    <g id="text_16">
     <text style="fill: #262626; font: 10px 'Linux Libertine'; text-anchor: middle" x="18.817188" y="135.557945" transform="rotate(-90, 18.817188, 135.557945)">Cost of 100 runs (USD)</text>
    </g>
   </g>
   <g id="patch_3">
    <path d="M 64.772727 260.2 
L 86.980034 260.2 
L 86.980034 152.186206 
L 64.772727 152.186206 
z
" clip-path="url(#pb5f7db7224)" style="fill: #0000ff; stroke: #ffffff; stroke-linejoin: miter"/>
   </g>
   <g id="patch_4">
    <path d="M 128.222175 260.2 
L 150.429482 260.2 
L 150.429482 172.611984 
L 128.222175 172.611984 
z
" clip-path="url(#pb5f7db7224)" style="fill: #0000ff; stroke: #ffffff; stroke-linejoin: miter"/>
   </g>
   <g id="patch_5">
    <path d="M 191.671623 260.2 
L 213.878929 260.2 
L 213.878929 153.239496 
L 191.671623 153.239496 
z
" clip-path="url(#pb5f7db7224)" style="fill: #0000ff; stroke: #ffffff; stroke-linejoin: miter"/>
   </g>
   <g id="patch_6">
    <path d="M 255.121071 260.2 
L 277.328377 260.2 
L 277.328377 178.820296 
L 255.121071 178.820296 
z
" clip-path="url(#pb5f7db7224)" style="fill: #0000ff; stroke: #ffffff; stroke-linejoin: miter"/>
   </g>
   <g id="patch_7">
    <path d="M 318.570518 260.2 
L 340.777825 260.2 
L 340.777825 180.887257 
L 318.570518 180.887257 
z
" clip-path="url(#pb5f7db7224)" style="fill: #0000ff; stroke: #ffffff; stroke-linejoin: miter"/>
   </g>
   <g id="patch_8">
    <path d="M 382.019966 260.2 
L 404.227273 260.2 
L 404.227273 156.080838 
L 382.019966 156.080838 
z
" clip-path="url(#pb5f7db7224)" style="fill: #0000ff; stroke: #ffffff; stroke-linejoin: miter"/>
   </g>
   <g id="patch_9">
    <path d="M 64.772727 152.186206 
L 86.980034 152.186206 
L 86.980034 137.65364 
L 64.772727 137.65364 
z
" clip-path="url(#pb5f7db7224)" style="fill: #ff0000; stroke: #ffffff; stroke-linejoin: miter"/>
   </g>
   <g id="patch_10">
    <path d="M 128.222175 172.611984 
L 150.429482 172.611984 
L 150.429482 137.193421 
L 128.222175 137.193421 
z
" clip-path="url(#pb5f7db7224)" style="fill: #ff0000; stroke: #ffffff; stroke-linejoin: miter"/>
   </g>
   <g id="patch_11">
    <path d="M 191.671623 153.239496 
L 213.878929 153.239496 
L 213.878929 22.786562 
L 191.671623 22.786562 
z
" clip-path="url(#pb5f7db7224)" style="fill: #ff0000; stroke: #ffffff; stroke-linejoin: miter"/>
   </g>
   <g id="patch_12">
    <path d="M 255.121071 178.820296 
L 277.328377 178.820296 
L 277.328377 178.820296 
L 255.121071 178.820296 
z
" clip-path="url(#pb5f7db7224)" style="fill: #ff0000; stroke: #ffffff; stroke-linejoin: miter"/>
   </g>
   <g id="patch_13">
    <path d="M 318.570518 180.887257 
L 340.777825 180.887257 
L 340.777825 180.887257 
L 318.570518 180.887257 
z
" clip-path="url(#pb5f7db7224)" style="fill: #ff0000; stroke: #ffffff; stroke-linejoin: miter"/>
   </g>
   <g id="patch_14">
    <path d="M 382.019966 156.080838 
L 404.227273 156.080838 
L 404.227273 156.080838 
L 382.019966 156.080838 
z
" clip-path="url(#pb5f7db7224)" style="fill: #ff0000; stroke: #ffffff; stroke-linejoin: miter"/>
   </g>
   <g id="patch_15">
    <path d="M 47.8 260.2 
L 47.8 10.91589 
" style="fill: none; stroke: #262626; stroke-width: 0.8; stroke-linejoin: miter; stroke-linecap: square"/>
   </g>
   <g id="patch_16">
    <path d="M 421.2 260.2 
L 421.2 10.91589 
" style="fill: none; stroke: #262626; stroke-width: 0.8; stroke-linejoin: miter; stroke-linecap: square"/>
   </g>
   <g id="patch_17">
    <path d="M 47.8 260.2 
L 421.2 260.2 
" style="fill: none; stroke: #262626; stroke-width: 0.8; stroke-linejoin: miter; stroke-linecap: square"/>
   </g>
   <g id="patch_18">
    <path d="M 47.8 10.91589 
L 421.2 10.91589 
" style="fill: none; stroke: #262626; stroke-width: 0.8; stroke-linejoin: miter; stroke-linecap: square"/>
   </g>
   <g id="legend_1">
    <g id="patch_19">
     <path d="M 316.525 48.27214 
L 414.2 48.27214 
Q 416.2 48.27214 416.2 46.27214 
L 416.2 17.91589 
Q 416.2 15.91589 414.2 15.91589 
L 316.525 15.91589 
Q 314.525 15.91589 314.525 17.91589 
L 314.525 46.27214 
Q 314.525 48.27214 316.525 48.27214 
z
" style="fill: #ffffff; opacity: 0.8; stroke: #cccccc; stroke-linejoin: miter"/>
    </g>
    <g id="patch_20">
     <path d="M 318.525 27.514327 
L 338.525 27.514327 
L 338.525 20.514327 
L 318.525 20.514327 
z
" style="fill: #0000ff; stroke: #ffffff; stroke-linejoin: miter"/>
    </g>
    <g id="text_17">
     <text style="fill: #262626; font: 10px 'Linux Libertine'; text-anchor: start" x="346.525" y="27.514327" transform="rotate(-0, 346.525, 27.514327)">Lambda Cost</text>
    </g>
    <g id="patch_21">
     <path d="M 318.525 42.192452 
L 338.525 42.192452 
L 338.525 35.192452 
L 318.525 35.192452 
z
" style="fill: #ff0000; stroke: #ffffff; stroke-linejoin: miter"/>
    </g>
    <g id="text_18">
     <text style="fill: #262626; font: 10px 'Linux Libertine'; text-anchor: start" x="346.525" y="42.192452" transform="rotate(-0, 346.525, 42.192452)">API Cost</text>
    </g>
   </g>
  </g>
 </g>
 <defs>
  <clipPath id="pb5f7db7224">
   <rect x="47.8" y="10.91589" width="373.4" height="249.28411"/>
  </clipPath>
 </defs>
</svg>
