<?xml version="1.0" encoding="utf-8" standalone="no"?>
<!DOCTYPE svg PUBLIC "-//W3C//DTD SVG 1.1//EN"
  "http://www.w3.org/Graphics/SVG/1.1/DTD/svg11.dtd">
<svg xmlns:xlink="http://www.w3.org/1999/xlink" width="432pt" height="288pt" viewBox="0 0 432 288" xmlns="http://www.w3.org/2000/svg" version="1.1">
 <metadata>
  <rdf:RDF xmlns:dc="http://purl.org/dc/elements/1.1/" xmlns:cc="http://creativecommons.org/ns#" xmlns:rdf="http://www.w3.org/1999/02/22-rdf-syntax-ns#">
   <cc:Work>
    <dc:type rdf:resource="http://purl.org/dc/dcmitype/StillImage"/>
    <dc:date>2023-08-12T22:25:37.260782</dc:date>
    <dc:format>image/svg+xml</dc:format>
    <dc:creator>
     <cc:Agent>
      <dc:title>Matplotlib v3.5.1, https://matplotlib.org/</dc:title>
     </cc:Agent>
    </dc:creator>
   </cc:Work>
  </rdf:RDF>
 </metadata>
 <defs>
  <style type="text/css">*{stroke-linejoin: round; stroke-linecap: butt}</style>
 </defs>
 <g id="figure_1">
  <g id="patch_1">
   <path d="M 0 288 
L 432 288 
L 432 0 
L 0 0 
z
" style="fill: #ffffff"/>
  </g>
  <g id="axes_1">
   <g id="patch_2">
    <path d="M 53.3 261.2 
L 421.2 261.2 
L 421.2 24.846875 
L 53.3 24.846875 
z
" style="fill: #ffffff"/>
   </g>
   <g id="matplotlib.axis_1">
    <g id="xtick_1">
     <g id="line2d_1">
      <path d="M 90.09 261.2 
L 90.09 24.846875 
" clip-path="url(#pd219befaa0)" style="fill: none; stroke: #cccccc; stroke-width: 0.8; stroke-linecap: round"/>
     </g>
     <g id="text_1">
      <text style="fill: #262626; font: 10px 'sans-serif'; text-anchor: middle" x="90.09" y="275.357813" transform="rotate(-0, 90.09, 275.357813)">S3</text>
     </g>
    </g>
    <g id="xtick_2">
     <g id="line2d_2">
      <path d="M 163.67 261.2 
L 163.67 24.846875 
" clip-path="url(#pd219befaa0)" style="fill: none; stroke: #cccccc; stroke-width: 0.8; stroke-linecap: round"/>
     </g>
     <g id="text_2">
      <text style="fill: #262626; font: 10px 'sans-serif'; text-anchor: middle" x="163.67" y="275.357813" transform="rotate(-0, 163.67, 275.357813)">EFS</text>
     </g>
    </g>
    <g id="xtick_3">
     <g id="line2d_3">
      <path d="M 237.25 261.2 
L 237.25 24.846875 
" clip-path="url(#pd219befaa0)" style="fill: none; stroke: #cccccc; stroke-width: 0.8; stroke-linecap: round"/>
     </g>
     <g id="text_3">
      <text style="fill: #262626; font: 10px 'sans-serif'; text-anchor: middle" x="237.25" y="275.357813" transform="rotate(-0, 237.25, 275.357813)">Redis</text>
     </g>
    </g>
    <g id="xtick_4">
     <g id="line2d_4">
      <path d="M 310.83 261.2 
L 310.83 24.846875 
" clip-path="url(#pd219befaa0)" style="fill: none; stroke: #cccccc; stroke-width: 0.8; stroke-linecap: round"/>
     </g>
     <g id="text_4">
      <text style="fill: #262626; font: 10px 'sans-serif'; text-anchor: middle" x="310.83" y="275.357813" transform="rotate(-0, 310.83, 275.357813)">Relay</text>
     </g>
    </g>
    <g id="xtick_5">
     <g id="line2d_5">
      <path d="M 384.41 261.2 
L 384.41 24.846875 
" clip-path="url(#pd219befaa0)" style="fill: none; stroke: #cccccc; stroke-width: 0.8; stroke-linecap: round"/>
     </g>
     <g id="text_5">
      <text style="fill: #262626; font: 10px 'sans-serif'; text-anchor: middle" x="384.41" y="275.357813" transform="rotate(-0, 384.41, 275.357813)">P2P</text>
     </g>
    </g>
   </g>
   <g id="matplotlib.axis_2">
    <g id="ytick_1">
     <g id="line2d_6">
      <path d="M 53.3 261.2 
L 421.2 261.2 
" clip-path="url(#pd219befaa0)" style="fill: none; stroke: #cccccc; stroke-width: 0.8; stroke-linecap: round"/>
     </g>
     <g id="text_6">
      <text style="fill: #262626; font: 10px 'sans-serif'; text-anchor: end" x="46.3" y="264.778906" transform="rotate(-0, 46.3, 264.778906)">0</text>
     </g>
    </g>
    <g id="ytick_2">
     <g id="line2d_7">
      <path d="M 53.3 231.655859 
L 421.2 231.655859 
" clip-path="url(#pd219befaa0)" style="fill: none; stroke: #cccccc; stroke-width: 0.8; stroke-linecap: round"/>
     </g>
     <g id="text_7">
      <text style="fill: #262626; font: 10px 'sans-serif'; text-anchor: end" x="46.3" y="235.234766" transform="rotate(-0, 46.3, 235.234766)">500</text>
     </g>
    </g>
    <g id="ytick_3">
     <g id="line2d_8">
      <path d="M 53.3 202.111719 
L 421.2 202.111719 
" clip-path="url(#pd219befaa0)" style="fill: none; stroke: #cccccc; stroke-width: 0.8; stroke-linecap: round"/>
     </g>
     <g id="text_8">
      <text style="fill: #262626; font: 10px 'sans-serif'; text-anchor: end" x="46.3" y="205.690625" transform="rotate(-0, 46.3, 205.690625)">1000</text>
     </g>
    </g>
    <g id="ytick_4">
     <g id="line2d_9">
      <path d="M 53.3 172.567578 
L 421.2 172.567578 
" clip-path="url(#pd219befaa0)" style="fill: none; stroke: #cccccc; stroke-width: 0.8; stroke-linecap: round"/>
     </g>
     <g id="text_9">
      <text style="fill: #262626; font: 10px 'sans-serif'; text-anchor: end" x="46.3" y="176.146484" transform="rotate(-0, 46.3, 176.146484)">1500</text>
     </g>
    </g>
    <g id="ytick_5">
     <g id="line2d_10">
      <path d="M 53.3 143.023437 
L 421.2 143.023437 
" clip-path="url(#pd219befaa0)" style="fill: none; stroke: #cccccc; stroke-width: 0.8; stroke-linecap: round"/>
     </g>
     <g id="text_10">
      <text style="fill: #262626; font: 10px 'sans-serif'; text-anchor: end" x="46.3" y="146.602344" transform="rotate(-0, 46.3, 146.602344)">2000</text>
     </g>
    </g>
    <g id="ytick_6">
     <g id="line2d_11">
      <path d="M 53.3 113.479297 
L 421.2 113.479297 
" clip-path="url(#pd219befaa0)" style="fill: none; stroke: #cccccc; stroke-width: 0.8; stroke-linecap: round"/>
     </g>
     <g id="text_11">
      <text style="fill: #262626; font: 10px 'sans-serif'; text-anchor: end" x="46.3" y="117.058203" transform="rotate(-0, 46.3, 117.058203)">2500</text>
     </g>
    </g>
    <g id="ytick_7">
     <g id="line2d_12">
      <path d="M 53.3 83.935156 
L 421.2 83.935156 
" clip-path="url(#pd219befaa0)" style="fill: none; stroke: #cccccc; stroke-width: 0.8; stroke-linecap: round"/>
     </g>
     <g id="text_12">
      <text style="fill: #262626; font: 10px 'sans-serif'; text-anchor: end" x="46.3" y="87.514062" transform="rotate(-0, 46.3, 87.514062)">3000</text>
     </g>
    </g>
    <g id="ytick_8">
     <g id="line2d_13">
      <path d="M 53.3 54.391016 
L 421.2 54.391016 
" clip-path="url(#pd219befaa0)" style="fill: none; stroke: #cccccc; stroke-width: 0.8; stroke-linecap: round"/>
     </g>
     <g id="text_13">
      <text style="fill: #262626; font: 10px 'sans-serif'; text-anchor: end" x="46.3" y="57.969922" transform="rotate(-0, 46.3, 57.969922)">3500</text>
     </g>
    </g>
    <g id="ytick_9">
     <g id="line2d_14">
      <path d="M 53.3 24.846875 
L 421.2 24.846875 
" clip-path="url(#pd219befaa0)" style="fill: none; stroke: #cccccc; stroke-width: 0.8; stroke-linecap: round"/>
     </g>
     <g id="text_14">
      <text style="fill: #262626; font: 10px 'sans-serif'; text-anchor: end" x="46.3" y="28.425781" transform="rotate(-0, 46.3, 28.425781)">4000</text>
     </g>
    </g>
    <g id="text_15">
     <text style="fill: #262626; font: 10px 'sans-serif'; text-anchor: middle" x="17.951563" y="143.023437" transform="rotate(-90, 17.951563, 143.023437)">Latency [ms]</text>
    </g>
   </g>
   <g id="PolyCollection_1">
    <defs>
     <path id="me288d5456e" d="M 90.334275 -129.728135 
L 89.845725 -129.728135 
L 89.72872 -130.272825 
L 89.566995 -130.817516 
L 89.348609 -131.362207 
L 89.060419 -131.906898 
L 88.688657 -132.451588 
L 88.219708 -132.996279 
L 87.641066 -133.54097 
L 86.942366 -134.085661 
L 86.116391 -134.630352 
L 85.159908 -135.175042 
L 84.074204 -135.719733 
L 82.865212 -136.264424 
L 81.543196 -136.809115 
L 80.122017 -137.353805 
L 78.618132 -137.898496 
L 77.049505 -138.443187 
L 75.434704 -138.987878 
L 73.792399 -139.532569 
L 72.141412 -140.077259 
L 70.501335 -140.62195 
L 68.893553 -141.166641 
L 67.342358 -141.711332 
L 65.875736 -142.256022 
L 64.525416 -142.800713 
L 63.325867 -143.345404 
L 62.312165 -143.890095 
L 61.516915 -144.434786 
L 60.966694 -144.979476 
L 60.678655 -145.524167 
L 60.658 -146.068858 
L 60.896898 -146.613549 
L 61.375141 -147.158239 
L 62.062489 -147.70293 
L 62.922279 -148.247621 
L 63.915594 -148.792312 
L 65.005209 -149.337002 
L 66.158564 -149.881693 
L 67.349334 -150.426384 
L 68.55747 -150.971075 
L 69.767972 -151.515766 
L 70.968945 -152.060456 
L 72.1496 -152.605147 
L 73.298836 -153.149838 
L 74.404797 -153.694529 
L 75.455535 -154.239219 
L 76.44055 -154.78391 
L 77.352745 -155.328601 
L 78.190211 -155.873292 
L 78.957276 -156.417983 
L 79.664457 -156.962673 
L 80.327206 -157.507364 
L 80.963652 -158.052055 
L 81.591762 -158.596746 
L 82.226509 -159.141436 
L 82.877569 -159.686127 
L 83.548 -160.230818 
L 84.23406 -160.775509 
L 84.926129 -161.3202 
L 85.610464 -161.86489 
L 86.271374 -162.409581 
L 86.893413 -162.954272 
L 87.463202 -163.498963 
L 87.970659 -164.043653 
L 88.409543 -164.588344 
L 88.777349 -165.133035 
L 89.07472 -165.677726 
L 89.304566 -166.222417 
L 89.471094 -166.767107 
L 89.578933 -167.311798 
L 89.632488 -167.856489 
L 89.635602 -168.40118 
L 89.591541 -168.94587 
L 89.503286 -169.490561 
L 89.374058 -170.035252 
L 89.207963 -170.579943 
L 89.010632 -171.124634 
L 88.78971 -171.669324 
L 88.555065 -172.214015 
L 88.318629 -172.758706 
L 88.093817 -173.303397 
L 87.894584 -173.848087 
L 87.734196 -174.392778 
L 87.623919 -174.937469 
L 87.571796 -175.48216 
L 87.581744 -176.026851 
L 87.653099 -176.571541 
L 87.780713 -177.116232 
L 87.955575 -177.660923 
L 88.165871 -178.205614 
L 88.398297 -178.750304 
L 88.639443 -179.294995 
L 88.877031 -179.839686 
L 89.100879 -180.384377 
L 89.303472 -180.929068 
L 89.480151 -181.473758 
L 89.628946 -182.018449 
L 89.750157 -182.56314 
L 89.845781 -183.107831 
L 89.918909 -183.652521 
L 90.261091 -183.652521 
L 90.261091 -183.652521 
L 90.334219 -183.107831 
L 90.429843 -182.56314 
L 90.551054 -182.018449 
L 90.699849 -181.473758 
L 90.876528 -180.929068 
L 91.079121 -180.384377 
L 91.302969 -179.839686 
L 91.540557 -179.294995 
L 91.781703 -178.750304 
L 92.014129 -178.205614 
L 92.224425 -177.660923 
L 92.399287 -177.116232 
L 92.526901 -176.571541 
L 92.598256 -176.026851 
L 92.608204 -175.48216 
L 92.556081 -174.937469 
L 92.445804 -174.392778 
L 92.285416 -173.848087 
L 92.086183 -173.303397 
L 91.861371 -172.758706 
L 91.624935 -172.214015 
L 91.39029 -171.669324 
L 91.169368 -171.124634 
L 90.972037 -170.579943 
L 90.805942 -170.035252 
L 90.676714 -169.490561 
L 90.588459 -168.94587 
L 90.544398 -168.40118 
L 90.547512 -167.856489 
L 90.601067 -167.311798 
L 90.708906 -166.767107 
L 90.875434 -166.222417 
L 91.10528 -165.677726 
L 91.402651 -165.133035 
L 91.770457 -164.588344 
L 92.209341 -164.043653 
L 92.716798 -163.498963 
L 93.286587 -162.954272 
L 93.908626 -162.409581 
L 94.569536 -161.86489 
L 95.253871 -161.3202 
L 95.94594 -160.775509 
L 96.632 -160.230818 
L 97.302431 -159.686127 
L 97.953491 -159.141436 
L 98.588238 -158.596746 
L 99.216348 -158.052055 
L 99.852794 -157.507364 
L 100.515543 -156.962673 
L 101.222724 -156.417983 
L 101.989789 -155.873292 
L 102.827255 -155.328601 
L 103.73945 -154.78391 
L 104.724465 -154.239219 
L 105.775203 -153.694529 
L 106.881164 -153.149838 
L 108.0304 -152.605147 
L 109.211055 -152.060456 
L 110.412028 -151.515766 
L 111.62253 -150.971075 
L 112.830666 -150.426384 
L 114.021436 -149.881693 
L 115.174791 -149.337002 
L 116.264406 -148.792312 
L 117.257721 -148.247621 
L 118.117511 -147.70293 
L 118.804859 -147.158239 
L 119.283102 -146.613549 
L 119.522 -146.068858 
L 119.501345 -145.524167 
L 119.213306 -144.979476 
L 118.663085 -144.434786 
L 117.867835 -143.890095 
L 116.854133 -143.345404 
L 115.654584 -142.800713 
L 114.304264 -142.256022 
L 112.837642 -141.711332 
L 111.286447 -141.166641 
L 109.678665 -140.62195 
L 108.038588 -140.077259 
L 106.387601 -139.532569 
L 104.745296 -138.987878 
L 103.130495 -138.443187 
L 101.561868 -137.898496 
L 100.057983 -137.353805 
L 98.636804 -136.809115 
L 97.314788 -136.264424 
L 96.105796 -135.719733 
L 95.020092 -135.175042 
L 94.063609 -134.630352 
L 93.237634 -134.085661 
L 92.538934 -133.54097 
L 91.960292 -132.996279 
L 91.491343 -132.451588 
L 91.119581 -131.906898 
L 90.831391 -131.362207 
L 90.613005 -130.817516 
L 90.45128 -130.272825 
L 90.334275 -129.728135 
z
" style="stroke: #3d3d3d; stroke-width: 1.5"/>
    </defs>
    <g clip-path="url(#pd219befaa0)">
     <use xlink:href="#me288d5456e" x="0" y="288" style="fill: #3274a1; stroke: #3d3d3d; stroke-width: 1.5"/>
    </g>
   </g>
   <g id="PolyCollection_2">
    <defs>
     <path id="mbc230bc4b6" d="M 165.183784 -97.665358 
L 162.156216 -97.665358 
L 160.751965 -99.879004 
L 158.488697 -102.09265 
L 155.193857 -104.306296 
L 150.89204 -106.519942 
L 145.914803 -108.733588 
L 140.924779 -110.947234 
L 136.800596 -113.16088 
L 134.392559 -115.374526 
L 134.238 -117.588172 
L 136.366312 -119.801818 
L 140.290336 -122.015464 
L 145.187248 -124.22911 
L 150.177393 -126.442756 
L 154.572818 -128.656402 
L 158.004086 -130.870048 
L 160.40981 -133.083694 
L 161.936716 -135.29734 
L 162.818512 -137.510986 
L 163.283472 -139.724632 
L 163.507866 -141.938278 
L 163.60716 -144.151924 
L 163.647498 -146.36557 
L 163.662556 -148.579216 
L 163.667726 -150.792862 
L 163.669358 -153.006508 
L 163.669833 -155.220154 
L 163.66996 -157.4338 
L 163.669991 -159.647446 
L 163.669998 -161.861092 
L 163.67 -164.074738 
L 163.67 -166.288383 
L 163.67 -168.502029 
L 163.67 -170.715675 
L 163.67 -172.929321 
L 163.67 -175.142967 
L 163.67 -177.356613 
L 163.67 -179.570259 
L 163.67 -181.783905 
L 163.67 -183.997551 
L 163.67 -186.211197 
L 163.67 -188.424843 
L 163.67 -190.638489 
L 163.67 -192.852135 
L 163.67 -195.065781 
L 163.67 -197.279427 
L 163.67 -199.493073 
L 163.67 -201.706719 
L 163.67 -203.920365 
L 163.67 -206.134011 
L 163.67 -208.347657 
L 163.67 -210.561303 
L 163.67 -212.774949 
L 163.67 -214.988595 
L 163.67 -217.202241 
L 163.67 -219.415887 
L 163.67 -221.629533 
L 163.67 -223.843179 
L 163.67 -226.056825 
L 163.67 -228.270471 
L 163.67 -230.484117 
L 163.67 -232.697763 
L 163.67 -234.911409 
L 163.67 -237.125055 
L 163.67 -239.338701 
L 163.67 -241.552347 
L 163.67 -243.765993 
L 163.67 -245.979639 
L 163.67 -248.193285 
L 163.67 -250.406931 
L 163.67 -252.620577 
L 163.67 -254.834223 
L 163.67 -257.047869 
L 163.67 -259.261515 
L 163.67 -261.475161 
L 163.669999 -263.688806 
L 163.669996 -265.902452 
L 163.669986 -268.116098 
L 163.669949 -270.329744 
L 163.669834 -272.54339 
L 163.6695 -274.757036 
L 163.668622 -276.970682 
L 163.666516 -279.184328 
L 163.661922 -281.397974 
L 163.652827 -283.61162 
L 163.636521 -285.825266 
L 163.61015 -288.038912 
L 163.571886 -290.252558 
L 163.522507 -292.466204 
L 163.466678 -294.67985 
L 163.412977 -296.893496 
L 163.372058 -299.107142 
L 163.353286 -301.320788 
L 163.361273 -303.534434 
L 163.394033 -305.74808 
L 163.44379 -307.961726 
L 163.499964 -310.175372 
L 163.552796 -312.389018 
L 163.595917 -314.602664 
L 163.627059 -316.81631 
L 163.712941 -316.81631 
L 163.712941 -316.81631 
L 163.744083 -314.602664 
L 163.787204 -312.389018 
L 163.840036 -310.175372 
L 163.89621 -307.961726 
L 163.945967 -305.74808 
L 163.978727 -303.534434 
L 163.986714 -301.320788 
L 163.967942 -299.107142 
L 163.927023 -296.893496 
L 163.873322 -294.67985 
L 163.817493 -292.466204 
L 163.768114 -290.252558 
L 163.72985 -288.038912 
L 163.703479 -285.825266 
L 163.687173 -283.61162 
L 163.678078 -281.397974 
L 163.673484 -279.184328 
L 163.671378 -276.970682 
L 163.6705 -274.757036 
L 163.670166 -272.54339 
L 163.670051 -270.329744 
L 163.670014 -268.116098 
L 163.670004 -265.902452 
L 163.670001 -263.688806 
L 163.67 -261.475161 
L 163.67 -259.261515 
L 163.67 -257.047869 
L 163.67 -254.834223 
L 163.67 -252.620577 
L 163.67 -250.406931 
L 163.67 -248.193285 
L 163.67 -245.979639 
L 163.67 -243.765993 
L 163.67 -241.552347 
L 163.67 -239.338701 
L 163.67 -237.125055 
L 163.67 -234.911409 
L 163.67 -232.697763 
L 163.67 -230.484117 
L 163.67 -228.270471 
L 163.67 -226.056825 
L 163.67 -223.843179 
L 163.67 -221.629533 
L 163.67 -219.415887 
L 163.67 -217.202241 
L 163.67 -214.988595 
L 163.67 -212.774949 
L 163.67 -210.561303 
L 163.67 -208.347657 
L 163.67 -206.134011 
L 163.67 -203.920365 
L 163.67 -201.706719 
L 163.67 -199.493073 
L 163.67 -197.279427 
L 163.67 -195.065781 
L 163.67 -192.852135 
L 163.67 -190.638489 
L 163.67 -188.424843 
L 163.67 -186.211197 
L 163.67 -183.997551 
L 163.67 -181.783905 
L 163.67 -179.570259 
L 163.67 -177.356613 
L 163.67 -175.142967 
L 163.67 -172.929321 
L 163.67 -170.715675 
L 163.67 -168.502029 
L 163.67 -166.288383 
L 163.67 -164.074738 
L 163.670002 -161.861092 
L 163.670009 -159.647446 
L 163.67004 -157.4338 
L 163.670167 -155.220154 
L 163.670642 -153.006508 
L 163.672274 -150.792862 
L 163.677444 -148.579216 
L 163.692502 -146.36557 
L 163.73284 -144.151924 
L 163.832134 -141.938278 
L 164.056528 -139.724632 
L 164.521488 -137.510986 
L 165.403284 -135.29734 
L 166.93019 -133.083694 
L 169.335914 -130.870048 
L 172.767182 -128.656402 
L 177.162607 -126.442756 
L 182.152752 -124.22911 
L 187.049664 -122.015464 
L 190.973688 -119.801818 
L 193.102 -117.588172 
L 192.947441 -115.374526 
L 190.539404 -113.16088 
L 186.415221 -110.947234 
L 181.425197 -108.733588 
L 176.44796 -106.519942 
L 172.146143 -104.306296 
L 168.851303 -102.09265 
L 166.588035 -99.879004 
L 165.183784 -97.665358 
z
" style="stroke: #3d3d3d; stroke-width: 1.5"/>
    </defs>
    <g clip-path="url(#pd219befaa0)">
     <use xlink:href="#mbc230bc4b6" x="0" y="288" style="fill: #e1812c; stroke: #3d3d3d; stroke-width: 1.5"/>
    </g>
   </g>
   <g id="PolyCollection_3">
    <defs>
     <path id="m2e6c73da12" d="M 237.424018 -70.418747 
L 237.075982 -70.418747 
L 236.985795 -70.75181 
L 236.858612 -71.084872 
L 236.683904 -71.417935 
L 236.449978 -71.750997 
L 236.144466 -72.08406 
L 235.754976 -72.417123 
L 235.269845 -72.750185 
L 234.678886 -73.083248 
L 233.974006 -73.416311 
L 233.149574 -73.749373 
L 232.202438 -74.082436 
L 231.131598 -74.415498 
L 229.937634 -74.748561 
L 228.622122 -75.081624 
L 227.187345 -75.414686 
L 225.636658 -75.747749 
L 223.975707 -76.080811 
L 222.214548 -76.413874 
L 220.370381 -76.746937 
L 218.470329 -77.079999 
L 216.553514 -77.413062 
L 214.671651 -77.746124 
L 212.887581 -78.079187 
L 211.271598 -78.41225 
L 209.895849 -78.745312 
L 208.827595 -79.078375 
L 208.122351 -79.411437 
L 207.818 -79.7445 
L 207.930751 -80.077563 
L 208.453461 -80.410625 
L 209.356399 -80.743688 
L 210.590143 -81.07675 
L 212.090092 -81.409813 
L 213.781936 -81.742876 
L 215.587491 -82.075938 
L 217.430391 -82.409001 
L 219.241236 -82.742063 
L 220.961859 -83.075126 
L 222.548439 -83.408189 
L 223.973212 -83.741251 
L 225.224646 -84.074314 
L 226.306027 -84.407376 
L 227.232661 -84.740439 
L 228.028035 -85.073502 
L 228.719494 -85.406564 
L 229.334069 -85.739627 
L 229.895039 -86.072689 
L 230.419688 -86.405752 
L 230.918449 -86.738815 
L 231.395374 -87.071877 
L 231.849611 -87.40494 
L 232.277416 -87.738002 
L 232.674202 -88.071065 
L 233.036202 -88.404128 
L 233.361495 -88.73719 
L 233.650344 -89.070253 
L 233.904979 -89.403315 
L 234.129047 -89.736378 
L 234.326954 -90.069441 
L 234.503302 -90.402503 
L 234.662473 -90.735566 
L 234.808378 -91.068628 
L 234.944302 -91.401691 
L 235.072802 -91.734754 
L 235.195622 -92.067816 
L 235.313648 -92.400879 
L 235.426929 -92.733941 
L 235.534805 -93.067004 
L 235.636133 -93.400067 
L 235.729579 -93.733129 
L 235.813924 -94.066192 
L 235.888326 -94.399254 
L 235.952482 -94.732317 
L 236.00668 -95.06538 
L 236.051751 -95.398442 
L 236.088939 -95.731505 
L 236.119734 -96.064568 
L 236.145707 -96.39763 
L 236.168391 -96.730693 
L 236.189214 -97.063755 
L 236.209518 -97.396818 
L 236.230623 -97.729881 
L 236.253922 -98.062943 
L 236.280925 -98.396006 
L 236.313233 -98.729068 
L 236.352398 -99.062131 
L 236.399675 -99.395194 
L 236.455747 -99.728256 
L 236.520469 -100.061319 
L 236.592729 -100.394381 
L 236.670479 -100.727444 
L 236.750948 -101.060507 
L 236.83098 -101.393569 
L 236.907455 -101.726632 
L 236.977675 -102.059694 
L 237.039654 -102.392757 
L 237.092262 -102.72582 
L 237.135229 -103.058882 
L 237.169013 -103.391945 
L 237.330987 -103.391945 
L 237.330987 -103.391945 
L 237.364771 -103.058882 
L 237.407738 -102.72582 
L 237.460346 -102.392757 
L 237.522325 -102.059694 
L 237.592545 -101.726632 
L 237.66902 -101.393569 
L 237.749052 -101.060507 
L 237.829521 -100.727444 
L 237.907271 -100.394381 
L 237.979531 -100.061319 
L 238.044253 -99.728256 
L 238.100325 -99.395194 
L 238.147602 -99.062131 
L 238.186767 -98.729068 
L 238.219075 -98.396006 
L 238.246078 -98.062943 
L 238.269377 -97.729881 
L 238.290482 -97.396818 
L 238.310786 -97.063755 
L 238.331609 -96.730693 
L 238.354293 -96.39763 
L 238.380266 -96.064568 
L 238.411061 -95.731505 
L 238.448249 -95.398442 
L 238.49332 -95.06538 
L 238.547518 -94.732317 
L 238.611674 -94.399254 
L 238.686076 -94.066192 
L 238.770421 -93.733129 
L 238.863867 -93.400067 
L 238.965195 -93.067004 
L 239.073071 -92.733941 
L 239.186352 -92.400879 
L 239.304378 -92.067816 
L 239.427198 -91.734754 
L 239.555698 -91.401691 
L 239.691622 -91.068628 
L 239.837527 -90.735566 
L 239.996698 -90.402503 
L 240.173046 -90.069441 
L 240.370953 -89.736378 
L 240.595021 -89.403315 
L 240.849656 -89.070253 
L 241.138505 -88.73719 
L 241.463798 -88.404128 
L 241.825798 -88.071065 
L 242.222584 -87.738002 
L 242.650389 -87.40494 
L 243.104626 -87.071877 
L 243.581551 -86.738815 
L 244.080312 -86.405752 
L 244.604961 -86.072689 
L 245.165931 -85.739627 
L 245.780506 -85.406564 
L 246.471965 -85.073502 
L 247.267339 -84.740439 
L 248.193973 -84.407376 
L 249.275354 -84.074314 
L 250.526788 -83.741251 
L 251.951561 -83.408189 
L 253.538141 -83.075126 
L 255.258764 -82.742063 
L 257.069609 -82.409001 
L 258.912509 -82.075938 
L 260.718064 -81.742876 
L 262.409908 -81.409813 
L 263.909857 -81.07675 
L 265.143601 -80.743688 
L 266.046539 -80.410625 
L 266.569249 -80.077563 
L 266.682 -79.7445 
L 266.377649 -79.411437 
L 265.672405 -79.078375 
L 264.604151 -78.745312 
L 263.228402 -78.41225 
L 261.612419 -78.079187 
L 259.828349 -77.746124 
L 257.946486 -77.413062 
L 256.029671 -77.079999 
L 254.129619 -76.746937 
L 252.285452 -76.413874 
L 250.524293 -76.080811 
L 248.863342 -75.747749 
L 247.312655 -75.414686 
L 245.877878 -75.081624 
L 244.562366 -74.748561 
L 243.368402 -74.415498 
L 242.297562 -74.082436 
L 241.350426 -73.749373 
L 240.525994 -73.416311 
L 239.821114 -73.083248 
L 239.230155 -72.750185 
L 238.745024 -72.417123 
L 238.355534 -72.08406 
L 238.050022 -71.750997 
L 237.816096 -71.417935 
L 237.641388 -71.084872 
L 237.514205 -70.75181 
L 237.424018 -70.418747 
z
" style="stroke: #3d3d3d; stroke-width: 1.5"/>
    </defs>
    <g clip-path="url(#pd219befaa0)">
     <use xlink:href="#m2e6c73da12" x="0" y="288" style="fill: #3a923a; stroke: #3d3d3d; stroke-width: 1.5"/>
    </g>
   </g>
   <g id="PolyCollection_4">
    <defs>
     <path id="med807a2c32" d="M 311.292004 -203.974196 
L 310.367996 -203.974196 
L 310.152594 -204.556376 
L 309.862068 -205.138556 
L 309.481376 -205.720736 
L 308.996508 -206.302917 
L 308.395924 -206.885097 
L 307.671971 -207.467277 
L 306.822061 -208.049457 
L 305.849426 -208.631638 
L 304.763265 -209.213818 
L 303.578254 -209.795998 
L 302.313439 -210.378178 
L 300.990648 -210.960358 
L 299.632607 -211.542539 
L 298.260974 -212.124719 
L 296.894514 -212.706899 
L 295.547611 -213.289079 
L 294.229328 -213.87126 
L 292.943211 -214.45344 
L 291.687985 -215.03562 
L 290.459216 -215.6178 
L 289.25187 -216.199981 
L 288.063463 -216.782161 
L 286.897308 -217.364341 
L 285.765188 -217.946521 
L 284.688778 -218.528701 
L 283.699297 -219.110882 
L 282.835202 -219.693062 
L 282.138184 -220.275242 
L 281.648129 -220.857422 
L 281.398 -221.439603 
L 281.409636 -222.021783 
L 281.691244 -222.603963 
L 282.236979 -223.186143 
L 283.028492 -223.768324 
L 284.037905 -224.350504 
L 285.231436 -224.932684 
L 286.57285 -225.514864 
L 288.026135 -226.097044 
L 289.557098 -226.679225 
L 291.13396 -227.261405 
L 292.72723 -227.843585 
L 294.30932 -228.425765 
L 295.854267 -229.007946 
L 297.337817 -229.590126 
L 298.737931 -230.172306 
L 300.035596 -230.754486 
L 301.215737 -231.336667 
L 302.267991 -231.918847 
L 303.18716 -232.501027 
L 303.973236 -233.083207 
L 304.630979 -233.665387 
L 305.169128 -234.247568 
L 305.599364 -234.829748 
L 305.935197 -235.411928 
L 306.190905 -235.994108 
L 306.38066 -236.576289 
L 306.517919 -237.158469 
L 306.615081 -237.740649 
L 306.683395 -238.322829 
L 306.733039 -238.90501 
L 306.773293 -239.48719 
L 306.812716 -240.06937 
L 306.859254 -240.65155 
L 306.920228 -241.23373 
L 307.002184 -241.815911 
L 307.110595 -242.398091 
L 307.249475 -242.980271 
L 307.420943 -243.562451 
L 307.624842 -244.144632 
L 307.858487 -244.726812 
L 308.116642 -245.308992 
L 308.391758 -245.891172 
L 308.674493 -246.473352 
L 308.954466 -247.055533 
L 309.22116 -247.637713 
L 309.464874 -248.219893 
L 309.677592 -248.802073 
L 309.853686 -249.384254 
L 309.990374 -249.966434 
L 310.087883 -250.548614 
L 310.149324 -251.130794 
L 310.18029 -251.712975 
L 310.188222 -252.295155 
L 310.181605 -252.877335 
L 310.169081 -253.459515 
L 310.158573 -254.041695 
L 310.156523 -254.623876 
L 310.167347 -255.206056 
L 310.193162 -255.788236 
L 310.233829 -256.370416 
L 310.287277 -256.952597 
L 310.350045 -257.534777 
L 310.417939 -258.116957 
L 310.486684 -258.699137 
L 310.55248 -259.281318 
L 310.612379 -259.863498 
L 310.664471 -260.445678 
L 310.707878 -261.027858 
L 310.742614 -261.610038 
L 310.917386 -261.610038 
L 310.917386 -261.610038 
L 310.952122 -261.027858 
L 310.995529 -260.445678 
L 311.047621 -259.863498 
L 311.10752 -259.281318 
L 311.173316 -258.699137 
L 311.242061 -258.116957 
L 311.309955 -257.534777 
L 311.372723 -256.952597 
L 311.426171 -256.370416 
L 311.466838 -255.788236 
L 311.492653 -255.206056 
L 311.503477 -254.623876 
L 311.501427 -254.041695 
L 311.490919 -253.459515 
L 311.478395 -252.877335 
L 311.471778 -252.295155 
L 311.47971 -251.712975 
L 311.510676 -251.130794 
L 311.572117 -250.548614 
L 311.669626 -249.966434 
L 311.806314 -249.384254 
L 311.982408 -248.802073 
L 312.195126 -248.219893 
L 312.43884 -247.637713 
L 312.705534 -247.055533 
L 312.985507 -246.473352 
L 313.268242 -245.891172 
L 313.543358 -245.308992 
L 313.801513 -244.726812 
L 314.035158 -244.144632 
L 314.239057 -243.562451 
L 314.410525 -242.980271 
L 314.549405 -242.398091 
L 314.657816 -241.815911 
L 314.739772 -241.23373 
L 314.800746 -240.65155 
L 314.847284 -240.06937 
L 314.886707 -239.48719 
L 314.926961 -238.90501 
L 314.976605 -238.322829 
L 315.044919 -237.740649 
L 315.142081 -237.158469 
L 315.27934 -236.576289 
L 315.469095 -235.994108 
L 315.724803 -235.411928 
L 316.060636 -234.829748 
L 316.490872 -234.247568 
L 317.029021 -233.665387 
L 317.686764 -233.083207 
L 318.47284 -232.501027 
L 319.392009 -231.918847 
L 320.444263 -231.336667 
L 321.624404 -230.754486 
L 322.922069 -230.172306 
L 324.322183 -229.590126 
L 325.805733 -229.007946 
L 327.35068 -228.425765 
L 328.93277 -227.843585 
L 330.52604 -227.261405 
L 332.102902 -226.679225 
L 333.633865 -226.097044 
L 335.08715 -225.514864 
L 336.428564 -224.932684 
L 337.622095 -224.350504 
L 338.631508 -223.768324 
L 339.423021 -223.186143 
L 339.968756 -222.603963 
L 340.250364 -222.021783 
L 340.262 -221.439603 
L 340.011871 -220.857422 
L 339.521816 -220.275242 
L 338.824798 -219.693062 
L 337.960703 -219.110882 
L 336.971222 -218.528701 
L 335.894812 -217.946521 
L 334.762692 -217.364341 
L 333.596537 -216.782161 
L 332.40813 -216.199981 
L 331.200784 -215.6178 
L 329.972015 -215.03562 
L 328.716789 -214.45344 
L 327.430672 -213.87126 
L 326.112389 -213.289079 
L 324.765486 -212.706899 
L 323.399026 -212.124719 
L 322.027393 -211.542539 
L 320.669352 -210.960358 
L 319.346561 -210.378178 
L 318.081746 -209.795998 
L 316.896735 -209.213818 
L 315.810574 -208.631638 
L 314.837939 -208.049457 
L 313.988029 -207.467277 
L 313.264076 -206.885097 
L 312.663492 -206.302917 
L 312.178624 -205.720736 
L 311.797932 -205.138556 
L 311.507406 -204.556376 
L 311.292004 -203.974196 
z
" style="stroke: #3d3d3d; stroke-width: 1.5"/>
    </defs>
    <g clip-path="url(#pd219befaa0)">
     <use xlink:href="#med807a2c32" x="0" y="288" style="fill: #c03d3e; stroke: #3d3d3d; stroke-width: 1.5"/>
    </g>
   </g>
   <g id="PolyCollection_5">
    <defs>
     <path id="ma66af614e1" d="M 384.527677 -66.951325 
L 384.292323 -66.951325 
L 384.18601 -68.422088 
L 384.000217 -69.892851 
L 383.687145 -71.363614 
L 383.178042 -72.834378 
L 382.380275 -74.305141 
L 381.18006 -75.775904 
L 379.455764 -77.246667 
L 377.105787 -78.717431 
L 374.090544 -80.188194 
L 370.480075 -81.658957 
L 366.490074 -83.12972 
L 362.484874 -84.600484 
L 358.931612 -86.071247 
L 356.30666 -87.54201 
L 354.978 -89.012773 
L 355.10403 -90.483537 
L 356.589221 -91.9543 
L 359.116789 -93.425063 
L 362.246582 -94.895826 
L 365.53906 -96.36659 
L 368.657939 -97.837353 
L 371.418399 -99.308116 
L 373.775483 -100.778879 
L 375.7728 -102.249643 
L 377.482761 -103.720406 
L 378.963835 -105.191169 
L 380.244837 -106.661932 
L 381.331162 -108.132696 
L 382.220466 -109.603459 
L 382.916303 -111.074222 
L 383.434149 -112.544985 
L 383.800101 -114.015749 
L 384.04568 -115.486512 
L 384.202245 -116.957275 
L 384.29708 -118.428038 
L 384.351621 -119.898802 
L 384.381359 -121.369565 
L 384.3967 -122.840328 
L 384.404169 -124.311091 
L 384.407592 -125.781855 
L 384.409065 -127.252618 
L 384.409659 -128.723381 
L 384.409884 -130.194144 
L 384.409963 -131.664908 
L 384.409989 -133.135671 
L 384.409997 -134.606434 
L 384.409999 -136.077197 
L 384.41 -137.547961 
L 384.41 -139.018724 
L 384.41 -140.489487 
L 384.41 -141.96025 
L 384.41 -143.431014 
L 384.41 -144.901777 
L 384.41 -146.37254 
L 384.41 -147.843303 
L 384.41 -149.314067 
L 384.41 -150.78483 
L 384.41 -152.255593 
L 384.41 -153.726356 
L 384.41 -155.19712 
L 384.41 -156.667883 
L 384.41 -158.138646 
L 384.41 -159.609409 
L 384.41 -161.080173 
L 384.41 -162.550936 
L 384.41 -164.021699 
L 384.41 -165.492462 
L 384.41 -166.963226 
L 384.41 -168.433989 
L 384.41 -169.904752 
L 384.41 -171.375515 
L 384.409999 -172.846279 
L 384.409997 -174.317042 
L 384.409991 -175.787805 
L 384.409969 -177.258568 
L 384.409903 -178.729332 
L 384.40972 -180.200095 
L 384.409245 -181.670858 
L 384.408103 -183.141621 
L 384.405562 -184.612385 
L 384.400327 -186.083148 
L 384.390358 -187.553911 
L 384.372847 -189.024674 
L 384.344535 -190.495438 
L 384.302545 -191.966201 
L 384.245693 -193.436964 
L 384.17596 -194.907727 
L 384.09945 -196.378491 
L 384.026136 -197.849254 
L 383.967991 -199.320017 
L 383.935878 -200.79078 
L 383.936244 -202.261544 
L 383.969012 -203.732307 
L 384.027612 -205.20307 
L 384.101122 -206.673833 
L 384.177578 -208.144597 
L 384.24708 -209.61536 
L 384.303616 -211.086123 
L 384.345288 -212.556886 
L 384.474712 -212.556886 
L 384.474712 -212.556886 
L 384.516384 -211.086123 
L 384.57292 -209.61536 
L 384.642422 -208.144597 
L 384.718878 -206.673833 
L 384.792388 -205.20307 
L 384.850988 -203.732307 
L 384.883756 -202.261544 
L 384.884122 -200.79078 
L 384.852009 -199.320017 
L 384.793864 -197.849254 
L 384.72055 -196.378491 
L 384.64404 -194.907727 
L 384.574307 -193.436964 
L 384.517455 -191.966201 
L 384.475465 -190.495438 
L 384.447153 -189.024674 
L 384.429642 -187.553911 
L 384.419673 -186.083148 
L 384.414438 -184.612385 
L 384.411897 -183.141621 
L 384.410755 -181.670858 
L 384.41028 -180.200095 
L 384.410097 -178.729332 
L 384.410031 -177.258568 
L 384.410009 -175.787805 
L 384.410003 -174.317042 
L 384.410001 -172.846279 
L 384.41 -171.375515 
L 384.41 -169.904752 
L 384.41 -168.433989 
L 384.41 -166.963226 
L 384.41 -165.492462 
L 384.41 -164.021699 
L 384.41 -162.550936 
L 384.41 -161.080173 
L 384.41 -159.609409 
L 384.41 -158.138646 
L 384.41 -156.667883 
L 384.41 -155.19712 
L 384.41 -153.726356 
L 384.41 -152.255593 
L 384.41 -150.78483 
L 384.41 -149.314067 
L 384.41 -147.843303 
L 384.41 -146.37254 
L 384.41 -144.901777 
L 384.41 -143.431014 
L 384.41 -141.96025 
L 384.41 -140.489487 
L 384.41 -139.018724 
L 384.41 -137.547961 
L 384.410001 -136.077197 
L 384.410003 -134.606434 
L 384.410011 -133.135671 
L 384.410037 -131.664908 
L 384.410116 -130.194144 
L 384.410341 -128.723381 
L 384.410935 -127.252618 
L 384.412408 -125.781855 
L 384.415831 -124.311091 
L 384.4233 -122.840328 
L 384.438641 -121.369565 
L 384.468379 -119.898802 
L 384.52292 -118.428038 
L 384.617755 -116.957275 
L 384.77432 -115.486512 
L 385.019899 -114.015749 
L 385.385851 -112.544985 
L 385.903697 -111.074222 
L 386.599534 -109.603459 
L 387.488838 -108.132696 
L 388.575163 -106.661932 
L 389.856165 -105.191169 
L 391.337239 -103.720406 
L 393.0472 -102.249643 
L 395.044517 -100.778879 
L 397.401601 -99.308116 
L 400.162061 -97.837353 
L 403.28094 -96.36659 
L 406.573418 -94.895826 
L 409.703211 -93.425063 
L 412.230779 -91.9543 
L 413.71597 -90.483537 
L 413.842 -89.012773 
L 412.51334 -87.54201 
L 409.888388 -86.071247 
L 406.335126 -84.600484 
L 402.329926 -83.12972 
L 398.339925 -81.658957 
L 394.729456 -80.188194 
L 391.714213 -78.717431 
L 389.364236 -77.246667 
L 387.63994 -75.775904 
L 386.439725 -74.305141 
L 385.641958 -72.834378 
L 385.132855 -71.363614 
L 384.819783 -69.892851 
L 384.63399 -68.422088 
L 384.527677 -66.951325 
z
" style="stroke: #3d3d3d; stroke-width: 1.5"/>
    </defs>
    <g clip-path="url(#pd219befaa0)">
     <use xlink:href="#ma66af614e1" x="0" y="288" style="fill: #9372b2; stroke: #3d3d3d; stroke-width: 1.5"/>
    </g>
   </g>
   <g id="line2d_15">
    <path d="M 63.593508 144.497001 
L 116.586492 144.497001 
" clip-path="url(#pd219befaa0)" style="fill: none; stroke-dasharray: 3.375,3.375; stroke-dashoffset: 0; stroke: #3d3d3d; stroke-width: 1.5"/>
   </g>
   <g id="line2d_16">
    <path d="M 61.188829 141.432692 
L 118.991171 141.432692 
" clip-path="url(#pd219befaa0)" style="fill: none; stroke-dasharray: 6.75,6.75; stroke-dashoffset: 0; stroke: #3d3d3d; stroke-width: 1.5"/>
   </g>
   <g id="line2d_17">
    <path d="M 71.160155 135.835349 
L 109.019845 135.835349 
" clip-path="url(#pd219befaa0)" style="fill: none; stroke-dasharray: 3.375,3.375; stroke-dashoffset: 0; stroke: #3d3d3d; stroke-width: 1.5"/>
   </g>
   <g id="line2d_18">
    <path d="M 134.685334 172.923174 
L 192.654666 172.923174 
" clip-path="url(#pd219befaa0)" style="fill: none; stroke-dasharray: 3.375,3.375; stroke-dashoffset: 0; stroke: #3d3d3d; stroke-width: 1.5"/>
   </g>
   <g id="line2d_19">
    <path d="M 134.685334 171.667009 
L 192.654666 171.667009 
" clip-path="url(#pd219befaa0)" style="fill: none; stroke-dasharray: 6.75,6.75; stroke-dashoffset: 0; stroke: #3d3d3d; stroke-width: 1.5"/>
   </g>
   <g id="line2d_20">
    <path d="M 134.53232 170.282081 
L 192.80768 170.282081 
" clip-path="url(#pd219befaa0)" style="fill: none; stroke-dasharray: 3.375,3.375; stroke-dashoffset: 0; stroke: #3d3d3d; stroke-width: 1.5"/>
   </g>
   <g id="line2d_21">
    <path d="M 210.16939 209.324702 
L 264.33061 209.324702 
" clip-path="url(#pd219befaa0)" style="fill: none; stroke-dasharray: 3.375,3.375; stroke-dashoffset: 0; stroke: #3d3d3d; stroke-width: 1.5"/>
   </g>
   <g id="line2d_22">
    <path d="M 208.741427 207.717172 
L 265.758573 207.717172 
" clip-path="url(#pd219befaa0)" style="fill: none; stroke-dasharray: 6.75,6.75; stroke-dashoffset: 0; stroke: #3d3d3d; stroke-width: 1.5"/>
   </g>
   <g id="line2d_23">
    <path d="M 217.628587 205.521007 
L 256.871413 205.521007 
" clip-path="url(#pd219befaa0)" style="fill: none; stroke-dasharray: 3.375,3.375; stroke-dashoffset: 0; stroke: #3d3d3d; stroke-width: 1.5"/>
   </g>
   <g id="line2d_24">
    <path d="M 286.015836 70.110416 
L 335.644164 70.110416 
" clip-path="url(#pd219befaa0)" style="fill: none; stroke-dasharray: 3.375,3.375; stroke-dashoffset: 0; stroke: #3d3d3d; stroke-width: 1.5"/>
   </g>
   <g id="line2d_25">
    <path d="M 281.703839 66.031123 
L 339.956161 66.031123 
" clip-path="url(#pd219befaa0)" style="fill: none; stroke-dasharray: 6.75,6.75; stroke-dashoffset: 0; stroke: #3d3d3d; stroke-width: 1.5"/>
   </g>
   <g id="line2d_26">
    <path d="M 289.769827 61.261876 
L 331.890173 61.261876 
" clip-path="url(#pd219befaa0)" style="fill: none; stroke-dasharray: 3.375,3.375; stroke-dashoffset: 0; stroke: #3d3d3d; stroke-width: 1.5"/>
   </g>
   <g id="line2d_27">
    <path d="M 356.587693 200.079931 
L 412.232307 200.079931 
" clip-path="url(#pd219befaa0)" style="fill: none; stroke-dasharray: 3.375,3.375; stroke-dashoffset: 0; stroke: #3d3d3d; stroke-width: 1.5"/>
   </g>
   <g id="line2d_28">
    <path d="M 355.397089 198.138735 
L 413.422911 198.138735 
" clip-path="url(#pd219befaa0)" style="fill: none; stroke-dasharray: 6.75,6.75; stroke-dashoffset: 0; stroke: #3d3d3d; stroke-width: 1.5"/>
   </g>
   <g id="line2d_29">
    <path d="M 356.867429 195.362131 
L 411.952571 195.362131 
" clip-path="url(#pd219befaa0)" style="fill: none; stroke-dasharray: 3.375,3.375; stroke-dashoffset: 0; stroke: #3d3d3d; stroke-width: 1.5"/>
   </g>
   <g id="patch_3">
    <path d="M 53.3 261.2 
L 53.3 24.846875 
" style="fill: none; stroke: #262626; stroke-width: 0.8; stroke-linejoin: miter; stroke-linecap: square"/>
   </g>
   <g id="patch_4">
    <path d="M 421.2 261.2 
L 421.2 24.846875 
" style="fill: none; stroke: #262626; stroke-width: 0.8; stroke-linejoin: miter; stroke-linecap: square"/>
   </g>
   <g id="patch_5">
    <path d="M 53.3 261.2 
L 421.2 261.2 
" style="fill: none; stroke: #262626; stroke-width: 0.8; stroke-linejoin: miter; stroke-linecap: square"/>
   </g>
   <g id="patch_6">
    <path d="M 53.3 24.846875 
L 421.2 24.846875 
" style="fill: none; stroke: #262626; stroke-width: 0.8; stroke-linejoin: miter; stroke-linecap: square"/>
   </g>
   <g id="text_16">
    <text style="fill: #262626; font: 12px 'sans-serif'; text-anchor: middle" x="237.25" y="18.846875" transform="rotate(-0, 237.25, 18.846875)">Communication Latency (message_size=100MB)</text>
   </g>
  </g>
 </g>
 <defs>
  <clipPath id="pd219befaa0">
   <rect x="53.3" y="24.846875" width="367.9" height="236.353125"/>
  </clipPath>
 </defs>
</svg>
