<?xml version="1.0" encoding="utf-8" standalone="no"?>
<!DOCTYPE svg PUBLIC "-//W3C//DTD SVG 1.1//EN"
  "http://www.w3.org/Graphics/SVG/1.1/DTD/svg11.dtd">
<svg xmlns:xlink="http://www.w3.org/1999/xlink" width="432pt" height="288pt" viewBox="0 0 432 288" xmlns="http://www.w3.org/2000/svg" version="1.1">
 <metadata>
  <rdf:RDF xmlns:dc="http://purl.org/dc/elements/1.1/" xmlns:cc="http://creativecommons.org/ns#" xmlns:rdf="http://www.w3.org/1999/02/22-rdf-syntax-ns#">
   <cc:Work>
    <dc:type rdf:resource="http://purl.org/dc/dcmitype/StillImage"/>
    <dc:date>2023-08-12T22:25:37.007855</dc:date>
    <dc:format>image/svg+xml</dc:format>
    <dc:creator>
     <cc:Agent>
      <dc:title>Matplotlib v3.5.1, https://matplotlib.org/</dc:title>
     </cc:Agent>
    </dc:creator>
   </cc:Work>
  </rdf:RDF>
 </metadata>
 <defs>
  <style type="text/css">*{stroke-linejoin: round; stroke-linecap: butt}</style>
 </defs>
 <g id="figure_1">
  <g id="patch_1">
   <path d="M 0 288 
L 432 288 
L 432 0 
L 0 0 
z
" style="fill: #ffffff"/>
  </g>
  <g id="axes_1">
   <g id="patch_2">
    <path d="M 44.55 260.2 
L 421.2 260.2 
L 421.2 26.8 
L 44.55 26.8 
z
" style="fill: #ffffff"/>
   </g>
   <g id="matplotlib.axis_1">
    <g id="xtick_1">
     <g id="line2d_1">
      <path d="M 75.9375 260.2 
L 75.9375 26.8 
" clip-path="url(#pc85a719087)" style="fill: none; stroke: #cccccc; stroke-width: 0.8; stroke-linecap: round"/>
     </g>
     <g id="text_1">
      <text style="fill: #262626; font: 10px 'Linux Libertine'; text-anchor: middle" x="75.9375" y="274.798437" transform="rotate(-0, 75.9375, 274.798437)">S3</text>
     </g>
    </g>
    <g id="xtick_2">
     <g id="line2d_2">
      <path d="M 138.7125 260.2 
L 138.7125 26.8 
" clip-path="url(#pc85a719087)" style="fill: none; stroke: #cccccc; stroke-width: 0.8; stroke-linecap: round"/>
     </g>
     <g id="text_2">
      <text style="fill: #262626; font: 10px 'Linux Libertine'; text-anchor: middle" x="138.7125" y="274.798437" transform="rotate(-0, 138.7125, 274.798437)">DynamoDB</text>
     </g>
    </g>
    <g id="xtick_3">
     <g id="line2d_3">
      <path d="M 201.4875 260.2 
L 201.4875 26.8 
" clip-path="url(#pc85a719087)" style="fill: none; stroke: #cccccc; stroke-width: 0.8; stroke-linecap: round"/>
     </g>
     <g id="text_3">
      <text style="fill: #262626; font: 10px 'Linux Libertine'; text-anchor: middle" x="201.4875" y="274.798437" transform="rotate(-0, 201.4875, 274.798437)">EFS</text>
     </g>
    </g>
    <g id="xtick_4">
     <g id="line2d_4">
      <path d="M 264.2625 260.2 
L 264.2625 26.8 
" clip-path="url(#pc85a719087)" style="fill: none; stroke: #cccccc; stroke-width: 0.8; stroke-linecap: round"/>
     </g>
     <g id="text_4">
      <text style="fill: #262626; font: 10px 'Linux Libertine'; text-anchor: middle" x="264.2625" y="274.798437" transform="rotate(-0, 264.2625, 274.798437)">Redis</text>
     </g>
    </g>
    <g id="xtick_5">
     <g id="line2d_5">
      <path d="M 327.0375 260.2 
L 327.0375 26.8 
" clip-path="url(#pc85a719087)" style="fill: none; stroke: #cccccc; stroke-width: 0.8; stroke-linecap: round"/>
     </g>
     <g id="text_5">
      <text style="fill: #262626; font: 10px 'Linux Libertine'; text-anchor: middle" x="327.0375" y="274.798437" transform="rotate(-0, 327.0375, 274.798437)">Relay</text>
     </g>
    </g>
    <g id="xtick_6">
     <g id="line2d_6">
      <path d="M 389.8125 260.2 
L 389.8125 26.8 
" clip-path="url(#pc85a719087)" style="fill: none; stroke: #cccccc; stroke-width: 0.8; stroke-linecap: round"/>
     </g>
     <g id="text_6">
      <text style="fill: #262626; font: 10px 'Linux Libertine'; text-anchor: middle" x="389.8125" y="274.798437" transform="rotate(-0, 389.8125, 274.798437)">P2P</text>
     </g>
    </g>
   </g>
   <g id="matplotlib.axis_2">
    <g id="ytick_1">
     <g id="line2d_7">
      <path d="M 44.55 260.2 
L 421.2 260.2 
" clip-path="url(#pc85a719087)" style="fill: none; stroke: #cccccc; stroke-width: 0.8; stroke-linecap: round"/>
     </g>
     <g id="text_7">
      <text style="fill: #262626; font: 10px 'Linux Libertine'; text-anchor: end" x="37.55" y="263.999219" transform="rotate(-0, 37.55, 263.999219)">0</text>
     </g>
    </g>
    <g id="ytick_2">
     <g id="line2d_8">
      <path d="M 44.55 234.266667 
L 421.2 234.266667 
" clip-path="url(#pc85a719087)" style="fill: none; stroke: #cccccc; stroke-width: 0.8; stroke-linecap: round"/>
     </g>
     <g id="text_8">
      <text style="fill: #262626; font: 10px 'Linux Libertine'; text-anchor: end" x="37.55" y="238.065885" transform="rotate(-0, 37.55, 238.065885)">10</text>
     </g>
    </g>
    <g id="ytick_3">
     <g id="line2d_9">
      <path d="M 44.55 208.333333 
L 421.2 208.333333 
" clip-path="url(#pc85a719087)" style="fill: none; stroke: #cccccc; stroke-width: 0.8; stroke-linecap: round"/>
     </g>
     <g id="text_9">
      <text style="fill: #262626; font: 10px 'Linux Libertine'; text-anchor: end" x="37.55" y="212.132552" transform="rotate(-0, 37.55, 212.132552)">20</text>
     </g>
    </g>
    <g id="ytick_4">
     <g id="line2d_10">
      <path d="M 44.55 182.4 
L 421.2 182.4 
" clip-path="url(#pc85a719087)" style="fill: none; stroke: #cccccc; stroke-width: 0.8; stroke-linecap: round"/>
     </g>
     <g id="text_10">
      <text style="fill: #262626; font: 10px 'Linux Libertine'; text-anchor: end" x="37.55" y="186.199219" transform="rotate(-0, 37.55, 186.199219)">30</text>
     </g>
    </g>
    <g id="ytick_5">
     <g id="line2d_11">
      <path d="M 44.55 156.466667 
L 421.2 156.466667 
" clip-path="url(#pc85a719087)" style="fill: none; stroke: #cccccc; stroke-width: 0.8; stroke-linecap: round"/>
     </g>
     <g id="text_11">
      <text style="fill: #262626; font: 10px 'Linux Libertine'; text-anchor: end" x="37.55" y="160.265885" transform="rotate(-0, 37.55, 160.265885)">40</text>
     </g>
    </g>
    <g id="ytick_6">
     <g id="line2d_12">
      <path d="M 44.55 130.533333 
L 421.2 130.533333 
" clip-path="url(#pc85a719087)" style="fill: none; stroke: #cccccc; stroke-width: 0.8; stroke-linecap: round"/>
     </g>
     <g id="text_12">
      <text style="fill: #262626; font: 10px 'Linux Libertine'; text-anchor: end" x="37.55" y="134.332552" transform="rotate(-0, 37.55, 134.332552)">50</text>
     </g>
    </g>
    <g id="ytick_7">
     <g id="line2d_13">
      <path d="M 44.55 104.6 
L 421.2 104.6 
" clip-path="url(#pc85a719087)" style="fill: none; stroke: #cccccc; stroke-width: 0.8; stroke-linecap: round"/>
     </g>
     <g id="text_13">
      <text style="fill: #262626; font: 10px 'Linux Libertine'; text-anchor: end" x="37.55" y="108.399219" transform="rotate(-0, 37.55, 108.399219)">60</text>
     </g>
    </g>
    <g id="ytick_8">
     <g id="line2d_14">
      <path d="M 44.55 78.666667 
L 421.2 78.666667 
" clip-path="url(#pc85a719087)" style="fill: none; stroke: #cccccc; stroke-width: 0.8; stroke-linecap: round"/>
     </g>
     <g id="text_14">
      <text style="fill: #262626; font: 10px 'Linux Libertine'; text-anchor: end" x="37.55" y="82.465885" transform="rotate(-0, 37.55, 82.465885)">70</text>
     </g>
    </g>
    <g id="ytick_9">
     <g id="line2d_15">
      <path d="M 44.55 52.733333 
L 421.2 52.733333 
" clip-path="url(#pc85a719087)" style="fill: none; stroke: #cccccc; stroke-width: 0.8; stroke-linecap: round"/>
     </g>
     <g id="text_15">
      <text style="fill: #262626; font: 10px 'Linux Libertine'; text-anchor: end" x="37.55" y="56.532552" transform="rotate(-0, 37.55, 56.532552)">80</text>
     </g>
    </g>
    <g id="ytick_10">
     <g id="line2d_16">
      <path d="M 44.55 26.8 
L 421.2 26.8 
" clip-path="url(#pc85a719087)" style="fill: none; stroke: #cccccc; stroke-width: 0.8; stroke-linecap: round"/>
     </g>
     <g id="text_16">
      <text style="fill: #262626; font: 10px 'Linux Libertine'; text-anchor: end" x="37.55" y="30.599219" transform="rotate(-0, 37.55, 30.599219)">90</text>
     </g>
    </g>
    <g id="text_17">
     <text style="fill: #262626; font: 10px 'Linux Libertine'; text-anchor: middle" x="18.745313" y="143.5" transform="rotate(-90, 18.745313, 143.5)">Latency [ms]</text>
    </g>
   </g>
   <g id="PolyCollection_1">
    <defs>
     <path id="m2b0585c0b0" d="M 76.244472 -124.414622 
L 75.630528 -124.414622 
L 75.426492 -126.754758 
L 75.11455 -129.094894 
L 74.654937 -131.43503 
L 74.002482 -133.775166 
L 73.110452 -136.115302 
L 71.936545 -138.455438 
L 70.450699 -140.795574 
L 68.643818 -143.135709 
L 66.535914 -145.475845 
L 64.181833 -147.815981 
L 61.672679 -150.156117 
L 59.131626 -152.496253 
L 56.703754 -154.836389 
L 54.54082 -157.176525 
L 52.783178 -159.516661 
L 51.541931 -161.856797 
L 50.884663 -164.196932 
L 50.8275 -166.537068 
L 51.335 -168.877204 
L 52.327672 -171.21734 
L 53.695333 -173.557476 
L 55.313372 -175.897612 
L 57.058667 -178.237748 
L 58.822425 -180.577884 
L 60.518323 -182.91802 
L 62.08568 -185.258155 
L 63.488524 -187.598291 
L 64.712029 -189.938427 
L 65.757845 -192.278563 
L 66.639384 -194.618699 
L 67.377599 -196.958835 
L 67.997266 -199.298971 
L 68.523633 -201.639107 
L 68.979428 -203.979242 
L 69.382449 -206.319378 
L 69.744182 -208.659514 
L 70.069883 -210.99965 
L 70.36022 -213.339786 
L 70.614148 -215.679922 
L 70.832195 -218.020058 
L 71.019172 -220.360194 
L 71.18538 -222.70033 
L 71.345896 -225.040465 
L 71.518087 -227.380601 
L 71.71808 -229.720737 
L 71.957234 -232.060873 
L 72.239624 -234.401009 
L 72.561221 -236.741145 
L 72.910915 -239.081281 
L 73.273022 -241.421417 
L 73.630541 -243.761553 
L 73.968297 -246.101688 
L 74.275255 -248.441824 
L 74.545564 -250.78196 
L 74.77833 -253.122096 
L 74.976403 -255.462232 
L 75.144682 -257.802368 
L 75.288482 -260.142504 
L 75.412337 -262.48264 
L 75.519438 -264.822775 
L 75.611649 -267.162911 
L 75.689915 -269.503047 
L 75.754799 -271.843183 
L 75.806956 -274.183319 
L 75.847393 -276.523455 
L 75.877521 -278.863591 
L 75.899043 -281.203727 
L 75.913753 -283.543863 
L 75.923346 -285.883998 
L 75.929264 -288.224134 
L 75.932619 -290.56427 
L 75.934157 -292.904406 
L 75.934264 -295.244542 
L 75.932972 -297.584678 
L 75.929967 -299.924814 
L 75.92459 -302.26495 
L 75.915853 -304.605086 
L 75.902499 -306.945221 
L 75.883129 -309.285357 
L 75.856435 -311.625493 
L 75.821519 -313.965629 
L 75.778282 -316.305765 
L 75.727778 -318.645901 
L 75.672441 -320.986037 
L 75.616072 -323.326173 
L 75.563501 -325.666309 
L 75.519956 -328.006444 
L 75.490222 -330.34658 
L 75.477775 -332.686716 
L 75.48412 -335.026852 
L 75.508486 -337.366988 
L 75.547984 -339.707124 
L 75.598168 -342.04726 
L 75.65386 -344.387396 
L 75.710014 -346.727531 
L 75.76244 -349.067667 
L 75.80824 -351.407803 
L 75.845923 -353.747939 
L 75.875248 -356.088075 
L 75.999752 -356.088075 
L 75.999752 -356.088075 
L 76.029077 -353.747939 
L 76.06676 -351.407803 
L 76.11256 -349.067667 
L 76.164986 -346.727531 
L 76.22114 -344.387396 
L 76.276832 -342.04726 
L 76.327016 -339.707124 
L 76.366514 -337.366988 
L 76.39088 -335.026852 
L 76.397225 -332.686716 
L 76.384778 -330.34658 
L 76.355044 -328.006444 
L 76.311499 -325.666309 
L 76.258928 -323.326173 
L 76.202559 -320.986037 
L 76.147222 -318.645901 
L 76.096718 -316.305765 
L 76.053481 -313.965629 
L 76.018565 -311.625493 
L 75.991871 -309.285357 
L 75.972501 -306.945221 
L 75.959147 -304.605086 
L 75.95041 -302.26495 
L 75.945033 -299.924814 
L 75.942028 -297.584678 
L 75.940736 -295.244542 
L 75.940843 -292.904406 
L 75.942381 -290.56427 
L 75.945736 -288.224134 
L 75.951654 -285.883998 
L 75.961247 -283.543863 
L 75.975957 -281.203727 
L 75.997479 -278.863591 
L 76.027607 -276.523455 
L 76.068044 -274.183319 
L 76.120201 -271.843183 
L 76.185085 -269.503047 
L 76.263351 -267.162911 
L 76.355562 -264.822775 
L 76.462663 -262.48264 
L 76.586518 -260.142504 
L 76.730318 -257.802368 
L 76.898597 -255.462232 
L 77.09667 -253.122096 
L 77.329436 -250.78196 
L 77.599745 -248.441824 
L 77.906703 -246.101688 
L 78.244459 -243.761553 
L 78.601978 -241.421417 
L 78.964085 -239.081281 
L 79.313779 -236.741145 
L 79.635376 -234.401009 
L 79.917766 -232.060873 
L 80.15692 -229.720737 
L 80.356913 -227.380601 
L 80.529104 -225.040465 
L 80.68962 -222.70033 
L 80.855828 -220.360194 
L 81.042805 -218.020058 
L 81.260852 -215.679922 
L 81.51478 -213.339786 
L 81.805117 -210.99965 
L 82.130818 -208.659514 
L 82.492551 -206.319378 
L 82.895572 -203.979242 
L 83.351367 -201.639107 
L 83.877734 -199.298971 
L 84.497401 -196.958835 
L 85.235616 -194.618699 
L 86.117155 -192.278563 
L 87.162971 -189.938427 
L 88.386476 -187.598291 
L 89.78932 -185.258155 
L 91.356677 -182.91802 
L 93.052575 -180.577884 
L 94.816333 -178.237748 
L 96.561628 -175.897612 
L 98.179667 -173.557476 
L 99.547328 -171.21734 
L 100.54 -168.877204 
L 101.0475 -166.537068 
L 100.990337 -164.196932 
L 100.333069 -161.856797 
L 99.091822 -159.516661 
L 97.33418 -157.176525 
L 95.171246 -154.836389 
L 92.743374 -152.496253 
L 90.202321 -150.156117 
L 87.693167 -147.815981 
L 85.339086 -145.475845 
L 83.231182 -143.135709 
L 81.424301 -140.795574 
L 79.938455 -138.455438 
L 78.764548 -136.115302 
L 77.872518 -133.775166 
L 77.220063 -131.43503 
L 76.76045 -129.094894 
L 76.448508 -126.754758 
L 76.244472 -124.414622 
z
" style="stroke: #3d3d3d; stroke-width: 1.5"/>
    </defs>
    <g clip-path="url(#pc85a719087)">
     <use xlink:href="#m2b0585c0b0" x="0" y="288" style="fill: #3274a1; stroke: #3d3d3d; stroke-width: 1.5"/>
    </g>
   </g>
   <g id="PolyCollection_2">
    <defs>
     <path id="md78b2875ac" d="M 138.805436 -65.492557 
L 138.619564 -65.492557 
L 138.560455 -66.571576 
L 138.475195 -67.650595 
L 138.358672 -68.729615 
L 138.207612 -69.808634 
L 138.021464 -70.887654 
L 137.802588 -71.966673 
L 137.555407 -73.045692 
L 137.284441 -74.124712 
L 136.991668 -75.203731 
L 136.674039 -76.282751 
L 136.322155 -77.36177 
L 135.92075 -78.440789 
L 135.450889 -79.519809 
L 134.892884 -80.598828 
L 134.22851 -81.677848 
L 133.441435 -82.756867 
L 132.515917 -83.835886 
L 131.435187 -84.914906 
L 130.181674 -85.993925 
L 128.740737 -87.072945 
L 127.107996 -88.151964 
L 125.298306 -89.230983 
L 123.353116 -90.310003 
L 121.343047 -91.389022 
L 119.363967 -92.468042 
L 117.527016 -93.547061 
L 115.944946 -94.62608 
L 114.717984 -95.7051 
L 113.922246 -96.784119 
L 113.6025 -97.863138 
L 113.769718 -98.942158 
L 114.40259 -100.021177 
L 115.451652 -101.100197 
L 116.844782 -102.179216 
L 118.493508 -103.258235 
L 120.300174 -104.337255 
L 122.166247 -105.416274 
L 124.001572 -106.495294 
L 125.733458 -107.574313 
L 127.313676 -108.653332 
L 128.721364 -109.732352 
L 129.960706 -110.811371 
L 131.053813 -111.890391 
L 132.030772 -112.96941 
L 132.919777 -114.048429 
L 133.740042 -115.127449 
L 134.499103 -116.206468 
L 135.194524 -117.285488 
L 135.818547 -118.364507 
L 136.363526 -119.443526 
L 136.826052 -120.522546 
L 137.208558 -121.601565 
L 137.518372 -122.680585 
L 137.765136 -123.759604 
L 137.95802 -124.838623 
L 138.103909 -125.917643 
L 138.207157 -126.996662 
L 138.270759 -128.075682 
L 138.298233 -129.154701 
L 138.295349 -130.23372 
L 138.27095 -131.31274 
L 138.23651 -132.391759 
L 138.204523 -133.470779 
L 138.186226 -134.549798 
L 138.189383 -135.628817 
L 138.216861 -136.707837 
L 138.26644 -137.786856 
L 138.331887 -138.865876 
L 138.404875 -139.944895 
L 138.477106 -141.023914 
L 138.542007 -142.102934 
L 138.595613 -143.181953 
L 138.636603 -144.260973 
L 138.665705 -145.339992 
L 138.684807 -146.419011 
L 138.696098 -147.498031 
L 138.701407 -148.57705 
L 138.701786 -149.656069 
L 138.697313 -150.735089 
L 138.687086 -151.814108 
L 138.669382 -152.893128 
L 138.64203 -153.972147 
L 138.603045 -155.051166 
L 138.551464 -156.130186 
L 138.488257 -157.209205 
L 138.417012 -158.288225 
L 138.344062 -159.367244 
L 138.277801 -160.446263 
L 138.227198 -161.525283 
L 138.199835 -162.604302 
L 138.200047 -163.683322 
L 138.227801 -164.762341 
L 138.2787 -165.84136 
L 138.34513 -166.92038 
L 138.418114 -167.999399 
L 138.489282 -169.078419 
L 138.552345 -170.157438 
L 138.60377 -171.236457 
L 138.642652 -172.315477 
L 138.782348 -172.315477 
L 138.782348 -172.315477 
L 138.82123 -171.236457 
L 138.872655 -170.157438 
L 138.935718 -169.078419 
L 139.006886 -167.999399 
L 139.07987 -166.92038 
L 139.1463 -165.84136 
L 139.197199 -164.762341 
L 139.224953 -163.683322 
L 139.225165 -162.604302 
L 139.197802 -161.525283 
L 139.147199 -160.446263 
L 139.080938 -159.367244 
L 139.007988 -158.288225 
L 138.936743 -157.209205 
L 138.873536 -156.130186 
L 138.821955 -155.051166 
L 138.78297 -153.972147 
L 138.755618 -152.893128 
L 138.737914 -151.814108 
L 138.727687 -150.735089 
L 138.723214 -149.656069 
L 138.723593 -148.57705 
L 138.728902 -147.498031 
L 138.740193 -146.419011 
L 138.759295 -145.339992 
L 138.788397 -144.260973 
L 138.829387 -143.181953 
L 138.882993 -142.102934 
L 138.947894 -141.023914 
L 139.020125 -139.944895 
L 139.093113 -138.865876 
L 139.15856 -137.786856 
L 139.208139 -136.707837 
L 139.235617 -135.628817 
L 139.238774 -134.549798 
L 139.220477 -133.470779 
L 139.18849 -132.391759 
L 139.15405 -131.31274 
L 139.129651 -130.23372 
L 139.126767 -129.154701 
L 139.154241 -128.075682 
L 139.217843 -126.996662 
L 139.321091 -125.917643 
L 139.46698 -124.838623 
L 139.659864 -123.759604 
L 139.906628 -122.680585 
L 140.216442 -121.601565 
L 140.598948 -120.522546 
L 141.061474 -119.443526 
L 141.606453 -118.364507 
L 142.230476 -117.285488 
L 142.925897 -116.206468 
L 143.684958 -115.127449 
L 144.505223 -114.048429 
L 145.394228 -112.96941 
L 146.371187 -111.890391 
L 147.464294 -110.811371 
L 148.703636 -109.732352 
L 150.111324 -108.653332 
L 151.691542 -107.574313 
L 153.423428 -106.495294 
L 155.258753 -105.416274 
L 157.124826 -104.337255 
L 158.931492 -103.258235 
L 160.580218 -102.179216 
L 161.973348 -101.100197 
L 163.02241 -100.021177 
L 163.655282 -98.942158 
L 163.8225 -97.863138 
L 163.502754 -96.784119 
L 162.707016 -95.7051 
L 161.480054 -94.62608 
L 159.897984 -93.547061 
L 158.061033 -92.468042 
L 156.081953 -91.389022 
L 154.071884 -90.310003 
L 152.126694 -89.230983 
L 150.317004 -88.151964 
L 148.684263 -87.072945 
L 147.243326 -85.993925 
L 145.989813 -84.914906 
L 144.909083 -83.835886 
L 143.983565 -82.756867 
L 143.19649 -81.677848 
L 142.532116 -80.598828 
L 141.974111 -79.519809 
L 141.50425 -78.440789 
L 141.102845 -77.36177 
L 140.750961 -76.282751 
L 140.433332 -75.203731 
L 140.140559 -74.124712 
L 139.869593 -73.045692 
L 139.622412 -71.966673 
L 139.403536 -70.887654 
L 139.217388 -69.808634 
L 139.066328 -68.729615 
L 138.949805 -67.650595 
L 138.864545 -66.571576 
L 138.805436 -65.492557 
z
" style="stroke: #3d3d3d; stroke-width: 1.5"/>
    </defs>
    <g clip-path="url(#pc85a719087)">
     <use xlink:href="#md78b2875ac" x="0" y="288" style="fill: #e1812c; stroke: #3d3d3d; stroke-width: 1.5"/>
    </g>
   </g>
   <g id="PolyCollection_3">
    <defs>
     <path id="m3ec21333f1" d="M 201.562374 -72.630584 
L 201.412626 -72.630584 
L 201.36912 -72.927407 
L 201.309137 -73.22423 
L 201.230973 -73.521053 
L 201.134595 -73.817876 
L 201.021939 -74.114699 
L 200.896729 -74.411522 
L 200.763795 -74.708345 
L 200.628001 -75.005168 
L 200.493012 -75.301991 
L 200.360109 -75.598814 
L 200.227129 -75.895637 
L 200.08753 -76.19246 
L 199.929564 -76.489283 
L 199.735691 -76.786106 
L 199.482536 -77.082929 
L 199.141777 -77.379752 
L 198.68218 -77.676575 
L 198.072667 -77.973398 
L 197.285935 -78.270221 
L 196.301973 -78.567044 
L 195.110867 -78.863867 
L 193.71458 -79.16069 
L 192.127715 -79.457513 
L 190.377456 -79.754336 
L 188.502989 -80.051158 
L 186.554597 -80.347981 
L 184.592463 -80.644804 
L 182.685008 -80.941627 
L 180.906399 -81.23845 
L 179.332856 -81.535273 
L 178.037578 -81.832096 
L 177.084574 -82.128919 
L 176.522196 -82.425742 
L 176.3775 -82.722565 
L 176.652564 -83.019388 
L 177.323624 -83.316211 
L 178.343422 -83.613034 
L 179.646676 -83.909857 
L 181.157976 -84.20668 
L 182.800767 -84.503503 
L 184.505543 -84.800326 
L 186.215282 -85.097149 
L 187.886897 -85.393972 
L 189.48878 -85.690795 
L 190.996096 -85.987618 
L 192.386307 -86.284441 
L 193.637197 -86.581264 
L 194.728398 -86.878087 
L 195.645716 -87.17491 
L 196.386285 -87.471732 
L 196.962138 -87.768555 
L 197.400432 -88.065378 
L 197.739755 -88.362201 
L 198.023316 -88.659024 
L 198.290804 -88.955847 
L 198.571127 -89.25267 
L 198.877902 -89.549493 
L 199.208789 -89.846316 
L 199.548613 -90.143139 
L 199.875199 -90.439962 
L 200.166206 -90.736785 
L 200.405108 -91.033608 
L 200.584909 -91.330431 
L 200.708942 -91.627254 
L 200.788948 -91.924077 
L 200.841322 -92.2209 
L 200.882751 -92.517723 
L 200.926493 -92.814546 
L 200.980162 -93.111369 
L 201.045336 -93.408192 
L 201.118764 -93.705015 
L 201.194499 -94.001838 
L 201.266149 -94.298661 
L 201.328608 -94.595484 
L 201.378903 -94.892306 
L 201.416179 -95.189129 
L 201.441079 -95.485952 
L 201.45487 -95.782775 
L 201.458629 -96.079598 
L 201.452709 -96.376421 
L 201.436578 -96.673244 
L 201.409082 -96.970067 
L 201.369071 -97.26689 
L 201.316288 -97.563713 
L 201.252293 -97.860536 
L 201.181112 -98.157359 
L 201.109296 -98.454182 
L 201.045179 -98.751005 
L 200.997402 -99.047828 
L 200.973036 -99.344651 
L 200.975874 -99.641474 
L 201.005468 -99.938297 
L 201.057248 -100.23512 
L 201.123673 -100.531943 
L 201.196032 -100.828766 
L 201.266286 -101.125589 
L 201.328441 -101.422412 
L 201.37915 -101.719235 
L 201.417577 -102.016058 
L 201.557423 -102.016058 
L 201.557423 -102.016058 
L 201.59585 -101.719235 
L 201.646559 -101.422412 
L 201.708714 -101.125589 
L 201.778968 -100.828766 
L 201.851327 -100.531943 
L 201.917752 -100.23512 
L 201.969532 -99.938297 
L 201.999126 -99.641474 
L 202.001964 -99.344651 
L 201.977598 -99.047828 
L 201.929821 -98.751005 
L 201.865704 -98.454182 
L 201.793888 -98.157359 
L 201.722707 -97.860536 
L 201.658712 -97.563713 
L 201.605929 -97.26689 
L 201.565918 -96.970067 
L 201.538422 -96.673244 
L 201.522291 -96.376421 
L 201.516371 -96.079598 
L 201.52013 -95.782775 
L 201.533921 -95.485952 
L 201.558821 -95.189129 
L 201.596097 -94.892306 
L 201.646392 -94.595484 
L 201.708851 -94.298661 
L 201.780501 -94.001838 
L 201.856236 -93.705015 
L 201.929664 -93.408192 
L 201.994838 -93.111369 
L 202.048507 -92.814546 
L 202.092249 -92.517723 
L 202.133678 -92.2209 
L 202.186052 -91.924077 
L 202.266058 -91.627254 
L 202.390091 -91.330431 
L 202.569892 -91.033608 
L 202.808794 -90.736785 
L 203.099801 -90.439962 
L 203.426387 -90.143139 
L 203.766211 -89.846316 
L 204.097098 -89.549493 
L 204.403873 -89.25267 
L 204.684196 -88.955847 
L 204.951684 -88.659024 
L 205.235245 -88.362201 
L 205.574568 -88.065378 
L 206.012862 -87.768555 
L 206.588715 -87.471732 
L 207.329284 -87.17491 
L 208.246602 -86.878087 
L 209.337803 -86.581264 
L 210.588693 -86.284441 
L 211.978904 -85.987618 
L 213.48622 -85.690795 
L 215.088103 -85.393972 
L 216.759718 -85.097149 
L 218.469457 -84.800326 
L 220.174233 -84.503503 
L 221.817024 -84.20668 
L 223.328324 -83.909857 
L 224.631578 -83.613034 
L 225.651376 -83.316211 
L 226.322436 -83.019388 
L 226.5975 -82.722565 
L 226.452804 -82.425742 
L 225.890426 -82.128919 
L 224.937422 -81.832096 
L 223.642144 -81.535273 
L 222.068601 -81.23845 
L 220.289992 -80.941627 
L 218.382537 -80.644804 
L 216.420403 -80.347981 
L 214.472011 -80.051158 
L 212.597544 -79.754336 
L 210.847285 -79.457513 
L 209.26042 -79.16069 
L 207.864133 -78.863867 
L 206.673027 -78.567044 
L 205.689065 -78.270221 
L 204.902333 -77.973398 
L 204.29282 -77.676575 
L 203.833223 -77.379752 
L 203.492464 -77.082929 
L 203.239309 -76.786106 
L 203.045436 -76.489283 
L 202.88747 -76.19246 
L 202.747871 -75.895637 
L 202.614891 -75.598814 
L 202.481988 -75.301991 
L 202.346999 -75.005168 
L 202.211205 -74.708345 
L 202.078271 -74.411522 
L 201.953061 -74.114699 
L 201.840405 -73.817876 
L 201.744027 -73.521053 
L 201.665863 -73.22423 
L 201.60588 -72.927407 
L 201.562374 -72.630584 
z
" style="stroke: #3d3d3d; stroke-width: 1.5"/>
    </defs>
    <g clip-path="url(#pc85a719087)">
     <use xlink:href="#m3ec21333f1" x="0" y="288" style="fill: #3a923a; stroke: #3d3d3d; stroke-width: 1.5"/>
    </g>
   </g>
   <g id="PolyCollection_4">
    <defs>
     <path id="m87a9343531" d="M 264.332907 -29.527787 
L 264.192093 -29.527787 
L 264.165075 -29.719932 
L 264.130453 -29.912077 
L 264.086824 -30.104223 
L 264.032436 -30.296368 
L 263.964864 -30.488513 
L 263.880496 -30.680658 
L 263.773806 -30.872803 
L 263.636447 -31.064948 
L 263.456262 -31.257094 
L 263.216359 -31.449239 
L 262.89452 -31.641384 
L 262.463207 -31.833529 
L 261.890502 -32.025674 
L 261.142214 -32.217819 
L 260.185283 -32.409965 
L 258.992371 -32.60211 
L 257.54726 -32.794255 
L 255.8504 -32.9864 
L 253.923674 -33.178545 
L 251.813376 -33.37069 
L 249.590429 -33.562835 
L 247.347206 -33.754981 
L 245.190795 -33.947126 
L 243.233191 -34.139271 
L 241.579564 -34.331416 
L 240.316235 -34.523561 
L 239.500276 -34.715706 
L 239.1525 -34.907852 
L 239.255162 -35.099997 
L 239.754886 -35.292142 
L 240.570441 -35.484287 
L 241.604109 -35.676432 
L 242.754761 -35.868577 
L 243.930482 -36.060723 
L 245.058748 -36.252868 
L 246.092662 -36.445013 
L 247.012565 -36.637158 
L 247.823172 -36.829303 
L 248.547185 -37.021448 
L 249.216844 -37.213594 
L 249.865129 -37.405739 
L 250.518185 -37.597884 
L 251.190176 -37.790029 
L 251.881185 -37.982174 
L 252.578195 -38.174319 
L 253.258588 -38.366465 
L 253.895254 -38.55861 
L 254.462179 -38.750755 
L 254.939461 -38.9429 
L 255.316877 -39.135045 
L 255.595522 -39.32719 
L 255.7874 -39.519336 
L 255.913253 -39.711481 
L 255.999141 -39.903626 
L 256.072506 -40.095771 
L 256.158397 -40.287916 
L 256.276462 -40.480061 
L 256.439084 -40.672207 
L 256.65082 -40.864352 
L 256.909034 -41.056497 
L 257.205463 -41.248642 
L 257.528333 -41.440787 
L 257.864607 -41.632932 
L 258.202012 -41.825078 
L 258.53059 -42.017223 
L 258.843617 -42.209368 
L 259.137901 -42.401513 
L 259.413506 -42.593658 
L 259.673076 -42.785803 
L 259.920908 -42.977949 
L 260.16195 -43.170094 
L 260.400865 -43.362239 
L 260.641273 -43.554384 
L 260.885238 -43.746529 
L 261.133034 -43.938674 
L 261.383191 -44.13082 
L 261.632789 -44.322965 
L 261.877937 -44.51511 
L 262.114369 -44.707255 
L 262.338055 -44.8994 
L 262.545737 -45.091545 
L 262.735314 -45.283691 
L 262.906022 -45.475836 
L 263.058401 -45.667981 
L 263.194058 -45.860126 
L 263.315294 -46.052271 
L 263.424671 -46.244416 
L 263.5246 -46.436562 
L 263.617024 -46.628707 
L 263.703228 -46.820852 
L 263.783812 -47.012997 
L 263.858781 -47.205142 
L 263.927738 -47.397287 
L 263.990104 -47.589433 
L 264.045333 -47.781578 
L 264.093083 -47.973723 
L 264.133302 -48.165868 
L 264.166265 -48.358013 
L 264.192528 -48.550158 
L 264.332472 -48.550158 
L 264.332472 -48.550158 
L 264.358735 -48.358013 
L 264.391698 -48.165868 
L 264.431917 -47.973723 
L 264.479667 -47.781578 
L 264.534896 -47.589433 
L 264.597262 -47.397287 
L 264.666219 -47.205142 
L 264.741188 -47.012997 
L 264.821772 -46.820852 
L 264.907976 -46.628707 
L 265.0004 -46.436562 
L 265.100329 -46.244416 
L 265.209706 -46.052271 
L 265.330942 -45.860126 
L 265.466599 -45.667981 
L 265.618978 -45.475836 
L 265.789686 -45.283691 
L 265.979263 -45.091545 
L 266.186945 -44.8994 
L 266.410631 -44.707255 
L 266.647063 -44.51511 
L 266.892211 -44.322965 
L 267.141809 -44.13082 
L 267.391966 -43.938674 
L 267.639762 -43.746529 
L 267.883727 -43.554384 
L 268.124135 -43.362239 
L 268.36305 -43.170094 
L 268.604092 -42.977949 
L 268.851924 -42.785803 
L 269.111494 -42.593658 
L 269.387099 -42.401513 
L 269.681383 -42.209368 
L 269.99441 -42.017223 
L 270.322988 -41.825078 
L 270.660393 -41.632932 
L 270.996667 -41.440787 
L 271.319537 -41.248642 
L 271.615966 -41.056497 
L 271.87418 -40.864352 
L 272.085916 -40.672207 
L 272.248538 -40.480061 
L 272.366603 -40.287916 
L 272.452494 -40.095771 
L 272.525859 -39.903626 
L 272.611747 -39.711481 
L 272.7376 -39.519336 
L 272.929478 -39.32719 
L 273.208123 -39.135045 
L 273.585539 -38.9429 
L 274.062821 -38.750755 
L 274.629746 -38.55861 
L 275.266412 -38.366465 
L 275.946805 -38.174319 
L 276.643815 -37.982174 
L 277.334824 -37.790029 
L 278.006815 -37.597884 
L 278.659871 -37.405739 
L 279.308156 -37.213594 
L 279.977815 -37.021448 
L 280.701828 -36.829303 
L 281.512435 -36.637158 
L 282.432338 -36.445013 
L 283.466252 -36.252868 
L 284.594518 -36.060723 
L 285.770239 -35.868577 
L 286.920891 -35.676432 
L 287.954559 -35.484287 
L 288.770114 -35.292142 
L 289.269838 -35.099997 
L 289.3725 -34.907852 
L 289.024724 -34.715706 
L 288.208765 -34.523561 
L 286.945436 -34.331416 
L 285.291809 -34.139271 
L 283.334205 -33.947126 
L 281.177794 -33.754981 
L 278.934571 -33.562835 
L 276.711624 -33.37069 
L 274.601326 -33.178545 
L 272.6746 -32.9864 
L 270.97774 -32.794255 
L 269.532629 -32.60211 
L 268.339717 -32.409965 
L 267.382786 -32.217819 
L 266.634498 -32.025674 
L 266.061793 -31.833529 
L 265.63048 -31.641384 
L 265.308641 -31.449239 
L 265.068738 -31.257094 
L 264.888553 -31.064948 
L 264.751194 -30.872803 
L 264.644504 -30.680658 
L 264.560136 -30.488513 
L 264.492564 -30.296368 
L 264.438176 -30.104223 
L 264.394547 -29.912077 
L 264.359925 -29.719932 
L 264.332907 -29.527787 
z
" style="stroke: #3d3d3d; stroke-width: 1.5"/>
    </defs>
    <g clip-path="url(#pc85a719087)">
     <use xlink:href="#m87a9343531" x="0" y="288" style="fill: #c03d3e; stroke: #3d3d3d; stroke-width: 1.5"/>
    </g>
   </g>
   <g id="PolyCollection_5">
    <defs>
     <path id="m92c39a6f03" d="M 328.523415 -30.860944 
L 325.551585 -30.860944 
L 324.808167 -31.167594 
L 323.801192 -31.474244 
L 322.490582 -31.780894 
L 320.853185 -32.087544 
L 318.892178 -32.394194 
L 316.644843 -32.700845 
L 314.186523 -33.007495 
L 311.628879 -33.314145 
L 309.111539 -33.620795 
L 306.787624 -33.927445 
L 304.805189 -34.234095 
L 303.287822 -34.540745 
L 302.318145 -34.847395 
L 301.9275 -35.154046 
L 302.093803 -35.460696 
L 302.747763 -35.767346 
L 303.785839 -36.073996 
L 305.087028 -36.380646 
L 306.530055 -36.687296 
L 308.007877 -36.993946 
L 309.437418 -37.300596 
L 310.763732 -37.607247 
L 311.959047 -37.913897 
L 313.018028 -38.220547 
L 313.951038 -38.527197 
L 314.777123 -38.833847 
L 315.518026 -39.140497 
L 316.193994 -39.447147 
L 316.821502 -39.753798 
L 317.412585 -40.060448 
L 317.975234 -40.367098 
L 318.514246 -40.673748 
L 319.032111 -40.980398 
L 319.529678 -41.287048 
L 320.006588 -41.593698 
L 320.461559 -41.900348 
L 320.892631 -42.206999 
L 321.297465 -42.513649 
L 321.673679 -42.820299 
L 322.01917 -43.126949 
L 322.332384 -43.433599 
L 322.612496 -43.740249 
L 322.859539 -44.046899 
L 323.074556 -44.353549 
L 323.259822 -44.6602 
L 323.419135 -44.96685 
L 323.558086 -45.2735 
L 323.684153 -45.58015 
L 323.806434 -45.8868 
L 323.934919 -46.19345 
L 324.079306 -46.5001 
L 324.24755 -46.806751 
L 324.444457 -47.113401 
L 324.670674 -47.420051 
L 324.922355 -47.726701 
L 325.191641 -48.033351 
L 325.467864 -48.340001 
L 325.739208 -48.646651 
L 325.994464 -48.953301 
L 326.224507 -49.259952 
L 326.423251 -49.566602 
L 326.587965 -49.873252 
L 326.719004 -50.179902 
L 326.819135 -50.486552 
L 326.892661 -50.793202 
L 326.944559 -51.099852 
L 326.97976 -51.406502 
L 327.002663 -51.713153 
L 327.016861 -52.019803 
L 327.02506 -52.326453 
L 327.029116 -52.633103 
L 327.030129 -52.939753 
L 327.028565 -53.246403 
L 327.024363 -53.553053 
L 327.017034 -53.859703 
L 327.005774 -54.166354 
L 326.989583 -54.473004 
L 326.967444 -54.779654 
L 326.938537 -55.086304 
L 326.902502 -55.392954 
L 326.859697 -55.699604 
L 326.811406 -56.006254 
L 326.75993 -56.312905 
L 326.708507 -56.619555 
L 326.66103 -56.926205 
L 326.621585 -57.232855 
L 326.593882 -57.539505 
L 326.580682 -57.846155 
L 326.583341 -58.152805 
L 326.601585 -58.459455 
L 326.633551 -58.766106 
L 326.676106 -59.072756 
L 326.725348 -59.379406 
L 326.777196 -59.686056 
L 326.827932 -59.992706 
L 326.874608 -60.299356 
L 326.915262 -60.606006 
L 326.948939 -60.912656 
L 326.975555 -61.219307 
L 327.099445 -61.219307 
L 327.099445 -61.219307 
L 327.126061 -60.912656 
L 327.159738 -60.606006 
L 327.200392 -60.299356 
L 327.247068 -59.992706 
L 327.297804 -59.686056 
L 327.349652 -59.379406 
L 327.398894 -59.072756 
L 327.441449 -58.766106 
L 327.473415 -58.459455 
L 327.491659 -58.152805 
L 327.494318 -57.846155 
L 327.481118 -57.539505 
L 327.453415 -57.232855 
L 327.41397 -56.926205 
L 327.366493 -56.619555 
L 327.31507 -56.312905 
L 327.263594 -56.006254 
L 327.215303 -55.699604 
L 327.172498 -55.392954 
L 327.136463 -55.086304 
L 327.107556 -54.779654 
L 327.085417 -54.473004 
L 327.069226 -54.166354 
L 327.057966 -53.859703 
L 327.050637 -53.553053 
L 327.046435 -53.246403 
L 327.044871 -52.939753 
L 327.045884 -52.633103 
L 327.04994 -52.326453 
L 327.058139 -52.019803 
L 327.072337 -51.713153 
L 327.09524 -51.406502 
L 327.130441 -51.099852 
L 327.182339 -50.793202 
L 327.255865 -50.486552 
L 327.355996 -50.179902 
L 327.487035 -49.873252 
L 327.651749 -49.566602 
L 327.850493 -49.259952 
L 328.080536 -48.953301 
L 328.335792 -48.646651 
L 328.607136 -48.340001 
L 328.883359 -48.033351 
L 329.152645 -47.726701 
L 329.404326 -47.420051 
L 329.630543 -47.113401 
L 329.82745 -46.806751 
L 329.995694 -46.5001 
L 330.140081 -46.19345 
L 330.268566 -45.8868 
L 330.390847 -45.58015 
L 330.516914 -45.2735 
L 330.655865 -44.96685 
L 330.815178 -44.6602 
L 331.000444 -44.353549 
L 331.215461 -44.046899 
L 331.462504 -43.740249 
L 331.742616 -43.433599 
L 332.05583 -43.126949 
L 332.401321 -42.820299 
L 332.777535 -42.513649 
L 333.182369 -42.206999 
L 333.613441 -41.900348 
L 334.068412 -41.593698 
L 334.545322 -41.287048 
L 335.042889 -40.980398 
L 335.560754 -40.673748 
L 336.099766 -40.367098 
L 336.662415 -40.060448 
L 337.253498 -39.753798 
L 337.881006 -39.447147 
L 338.556974 -39.140497 
L 339.297877 -38.833847 
L 340.123962 -38.527197 
L 341.056972 -38.220547 
L 342.115953 -37.913897 
L 343.311268 -37.607247 
L 344.637582 -37.300596 
L 346.067123 -36.993946 
L 347.544945 -36.687296 
L 348.987972 -36.380646 
L 350.289161 -36.073996 
L 351.327237 -35.767346 
L 351.981197 -35.460696 
L 352.1475 -35.154046 
L 351.756855 -34.847395 
L 350.787178 -34.540745 
L 349.269811 -34.234095 
L 347.287376 -33.927445 
L 344.963461 -33.620795 
L 342.446121 -33.314145 
L 339.888477 -33.007495 
L 337.430157 -32.700845 
L 335.182822 -32.394194 
L 333.221815 -32.087544 
L 331.584418 -31.780894 
L 330.273808 -31.474244 
L 329.266833 -31.167594 
L 328.523415 -30.860944 
z
" style="stroke: #3d3d3d; stroke-width: 1.5"/>
    </defs>
    <g clip-path="url(#pc85a719087)">
     <use xlink:href="#m92c39a6f03" x="0" y="288" style="fill: #9372b2; stroke: #3d3d3d; stroke-width: 1.5"/>
    </g>
   </g>
   <g id="PolyCollection_6">
    <defs>
     <path id="mc5d092aa16" d="M 390.775409 -29.302106 
L 388.849591 -29.302106 
L 388.262245 -29.413444 
L 387.409772 -29.524783 
L 386.22717 -29.636121 
L 384.661164 -29.74746 
L 382.685188 -29.858798 
L 380.315151 -29.970137 
L 377.622242 -30.081476 
L 374.738461 -30.192814 
L 371.851272 -30.304153 
L 369.185862 -30.415491 
L 366.976543 -30.52683 
L 365.432146 -30.638168 
L 364.7025 -30.749507 
L 364.853552 -30.860845 
L 365.856928 -30.972184 
L 367.596223 -31.083522 
L 369.888185 -31.194861 
L 372.513468 -31.3062 
L 375.249849 -31.417538 
L 377.901093 -31.528877 
L 380.316667 -31.640215 
L 382.40038 -31.751554 
L 384.108852 -31.862892 
L 385.442621 -31.974231 
L 386.433517 -32.085569 
L 387.131619 -32.196908 
L 387.594184 -32.308247 
L 387.877713 -32.419585 
L 388.03325 -32.530924 
L 388.104309 -32.642262 
L 388.126478 -32.753601 
L 388.12779 -32.864939 
L 388.129225 -32.976278 
L 388.145047 -33.087616 
L 388.183014 -33.198955 
L 388.244697 -33.310293 
L 388.326214 -33.421632 
L 388.419547 -33.532971 
L 388.514457 -33.644309 
L 388.600741 -33.755648 
L 388.670443 -33.866986 
L 388.719562 -33.978325 
L 388.748857 -34.089663 
L 388.763593 -34.201002 
L 388.772257 -34.31234 
L 388.784588 -34.423679 
L 388.809371 -34.535017 
L 388.852527 -34.646356 
L 388.915897 -34.757695 
L 388.996958 -34.869033 
L 389.089428 -34.980372 
L 389.184558 -35.09171 
L 389.272761 -35.203049 
L 389.345242 -35.314387 
L 389.39534 -35.425726 
L 389.41945 -35.537064 
L 389.417441 -35.648403 
L 389.39261 -35.759741 
L 389.351196 -35.87108 
L 389.301522 -35.982419 
L 389.252849 -36.093757 
L 389.214067 -36.205096 
L 389.19242 -36.316434 
L 389.192485 -36.427773 
L 389.215602 -36.539111 
L 389.259887 -36.65045 
L 389.32081 -36.761788 
L 389.392183 -36.873127 
L 389.467332 -36.984466 
L 389.540171 -37.095804 
L 389.605973 -37.207143 
L 389.66173 -37.318481 
L 389.706113 -37.42982 
L 389.73913 -37.541158 
L 389.761625 -37.652497 
L 389.774777 -37.763835 
L 389.779692 -37.875174 
L 389.777169 -37.986512 
L 389.767647 -38.097851 
L 389.751325 -38.20919 
L 389.72841 -38.320528 
L 389.699424 -38.431867 
L 389.66549 -38.543205 
L 389.628514 -38.654544 
L 389.591192 -38.765882 
L 389.556796 -38.877221 
L 389.528761 -38.988559 
L 389.510151 -39.099898 
L 389.503116 -39.211236 
L 389.508496 -39.322575 
L 389.525651 -39.433914 
L 389.552592 -39.545252 
L 389.58636 -39.656591 
L 389.623559 -39.767929 
L 389.660911 -39.879268 
L 389.695712 -39.990606 
L 389.726098 -40.101945 
L 389.751118 -40.213283 
L 389.770626 -40.324622 
L 389.854374 -40.324622 
L 389.854374 -40.324622 
L 389.873882 -40.213283 
L 389.898902 -40.101945 
L 389.929288 -39.990606 
L 389.964089 -39.879268 
L 390.001441 -39.767929 
L 390.03864 -39.656591 
L 390.072408 -39.545252 
L 390.099349 -39.433914 
L 390.116504 -39.322575 
L 390.121884 -39.211236 
L 390.114849 -39.099898 
L 390.096239 -38.988559 
L 390.068204 -38.877221 
L 390.033808 -38.765882 
L 389.996486 -38.654544 
L 389.95951 -38.543205 
L 389.925576 -38.431867 
L 389.89659 -38.320528 
L 389.873675 -38.20919 
L 389.857353 -38.097851 
L 389.847831 -37.986512 
L 389.845308 -37.875174 
L 389.850223 -37.763835 
L 389.863375 -37.652497 
L 389.88587 -37.541158 
L 389.918887 -37.42982 
L 389.96327 -37.318481 
L 390.019027 -37.207143 
L 390.084829 -37.095804 
L 390.157668 -36.984466 
L 390.232817 -36.873127 
L 390.30419 -36.761788 
L 390.365113 -36.65045 
L 390.409398 -36.539111 
L 390.432515 -36.427773 
L 390.43258 -36.316434 
L 390.410933 -36.205096 
L 390.372151 -36.093757 
L 390.323478 -35.982419 
L 390.273804 -35.87108 
L 390.23239 -35.759741 
L 390.207559 -35.648403 
L 390.20555 -35.537064 
L 390.22966 -35.425726 
L 390.279758 -35.314387 
L 390.352239 -35.203049 
L 390.440442 -35.09171 
L 390.535572 -34.980372 
L 390.628042 -34.869033 
L 390.709103 -34.757695 
L 390.772473 -34.646356 
L 390.815629 -34.535017 
L 390.840412 -34.423679 
L 390.852743 -34.31234 
L 390.861407 -34.201002 
L 390.876143 -34.089663 
L 390.905438 -33.978325 
L 390.954557 -33.866986 
L 391.024259 -33.755648 
L 391.110543 -33.644309 
L 391.205453 -33.532971 
L 391.298786 -33.421632 
L 391.380303 -33.310293 
L 391.441986 -33.198955 
L 391.479953 -33.087616 
L 391.495775 -32.976278 
L 391.49721 -32.864939 
L 391.498522 -32.753601 
L 391.520691 -32.642262 
L 391.59175 -32.530924 
L 391.747287 -32.419585 
L 392.030816 -32.308247 
L 392.493381 -32.196908 
L 393.191483 -32.085569 
L 394.182379 -31.974231 
L 395.516148 -31.862892 
L 397.22462 -31.751554 
L 399.308333 -31.640215 
L 401.723907 -31.528877 
L 404.375151 -31.417538 
L 407.111532 -31.3062 
L 409.736815 -31.194861 
L 412.028777 -31.083522 
L 413.768072 -30.972184 
L 414.771448 -30.860845 
L 414.9225 -30.749507 
L 414.192854 -30.638168 
L 412.648457 -30.52683 
L 410.439138 -30.415491 
L 407.773728 -30.304153 
L 404.886539 -30.192814 
L 402.002758 -30.081476 
L 399.309849 -29.970137 
L 396.939812 -29.858798 
L 394.963836 -29.74746 
L 393.39783 -29.636121 
L 392.215228 -29.524783 
L 391.362755 -29.413444 
L 390.775409 -29.302106 
z
" style="stroke: #3d3d3d; stroke-width: 1.5"/>
    </defs>
    <g clip-path="url(#pc85a719087)">
     <use xlink:href="#mc5d092aa16" x="0" y="288" style="fill: #845b53; stroke: #3d3d3d; stroke-width: 1.5"/>
    </g>
   </g>
   <g id="line2d_17">
    <path d="M 51.785887 126.424861 
L 100.089113 126.424861 
" clip-path="url(#pc85a719087)" style="fill: none; stroke-dasharray: 3.375,3.375; stroke-dashoffset: 0; stroke: #3d3d3d; stroke-width: 1.5"/>
   </g>
   <g id="line2d_18">
    <path d="M 51.581025 118.062678 
L 100.293975 118.062678 
" clip-path="url(#pc85a719087)" style="fill: none; stroke-dasharray: 6.75,6.75; stroke-dashoffset: 0; stroke: #3d3d3d; stroke-width: 1.5"/>
   </g>
   <g id="line2d_19">
    <path d="M 64.824284 97.060458 
L 87.050716 97.060458 
" clip-path="url(#pc85a719087)" style="fill: none; stroke-dasharray: 3.375,3.375; stroke-dashoffset: 0; stroke: #3d3d3d; stroke-width: 1.5"/>
   </g>
   <g id="line2d_20">
    <path d="M 117.738871 194.627552 
L 159.686129 194.627552 
" clip-path="url(#pc85a719087)" style="fill: none; stroke-dasharray: 3.375,3.375; stroke-dashoffset: 0; stroke: #3d3d3d; stroke-width: 1.5"/>
   </g>
   <g id="line2d_21">
    <path d="M 113.8536 189.607275 
L 163.5714 189.607275 
" clip-path="url(#pc85a719087)" style="fill: none; stroke-dasharray: 6.75,6.75; stroke-dashoffset: 0; stroke: #3d3d3d; stroke-width: 1.5"/>
   </g>
   <g id="line2d_22">
    <path d="M 118.695698 184.613429 
L 158.729302 184.613429 
" clip-path="url(#pc85a719087)" style="fill: none; stroke-dasharray: 3.375,3.375; stroke-dashoffset: 0; stroke: #3d3d3d; stroke-width: 1.5"/>
   </g>
   <g id="line2d_23">
    <path d="M 179.554403 206.462565 
L 223.420597 206.462565 
" clip-path="url(#pc85a719087)" style="fill: none; stroke-dasharray: 3.375,3.375; stroke-dashoffset: 0; stroke: #3d3d3d; stroke-width: 1.5"/>
   </g>
   <g id="line2d_24">
    <path d="M 176.900913 205.106481 
L 226.074087 205.106481 
" clip-path="url(#pc85a719087)" style="fill: none; stroke-dasharray: 6.75,6.75; stroke-dashoffset: 0; stroke: #3d3d3d; stroke-width: 1.5"/>
   </g>
   <g id="line2d_25">
    <path d="M 182.987635 203.577583 
L 219.987365 203.577583 
" clip-path="url(#pc85a719087)" style="fill: none; stroke-dasharray: 3.375,3.375; stroke-dashoffset: 0; stroke: #3d3d3d; stroke-width: 1.5"/>
   </g>
   <g id="line2d_26">
    <path d="M 239.747898 253.285564 
L 288.777102 253.285564 
" clip-path="url(#pc85a719087)" style="fill: none; stroke-dasharray: 3.375,3.375; stroke-dashoffset: 0; stroke: #3d3d3d; stroke-width: 1.5"/>
   </g>
   <g id="line2d_27">
    <path d="M 241.830693 252.25486 
L 286.694307 252.25486 
" clip-path="url(#pc85a719087)" style="fill: none; stroke-dasharray: 6.75,6.75; stroke-dashoffset: 0; stroke: #3d3d3d; stroke-width: 1.5"/>
   </g>
   <g id="line2d_28">
    <path d="M 252.695038 249.739234 
L 275.829962 249.739234 
" clip-path="url(#pc85a719087)" style="fill: none; stroke-dasharray: 3.375,3.375; stroke-dashoffset: 0; stroke: #3d3d3d; stroke-width: 1.5"/>
   </g>
   <g id="line2d_29">
    <path d="M 302.565339 253.223348 
L 351.509661 253.223348 
" clip-path="url(#pc85a719087)" style="fill: none; stroke-dasharray: 3.375,3.375; stroke-dashoffset: 0; stroke: #3d3d3d; stroke-width: 1.5"/>
   </g>
   <g id="line2d_30">
    <path d="M 304.018355 251.848174 
L 350.056645 251.848174 
" clip-path="url(#pc85a719087)" style="fill: none; stroke-dasharray: 6.75,6.75; stroke-dashoffset: 0; stroke: #3d3d3d; stroke-width: 1.5"/>
   </g>
   <g id="line2d_31">
    <path d="M 316.302429 248.697477 
L 337.772571 248.697477 
" clip-path="url(#pc85a719087)" style="fill: none; stroke-dasharray: 3.375,3.375; stroke-dashoffset: 0; stroke: #3d3d3d; stroke-width: 1.5"/>
   </g>
   <g id="line2d_32">
    <path d="M 365.67595 257.338745 
L 413.94905 257.338745 
" clip-path="url(#pc85a719087)" style="fill: none; stroke-dasharray: 3.375,3.375; stroke-dashoffset: 0; stroke: #3d3d3d; stroke-width: 1.5"/>
   </g>
   <g id="line2d_33">
    <path d="M 364.9536 257.204806 
L 414.6714 257.204806 
" clip-path="url(#pc85a719087)" style="fill: none; stroke-dasharray: 6.75,6.75; stroke-dashoffset: 0; stroke: #3d3d3d; stroke-width: 1.5"/>
   </g>
   <g id="line2d_34">
    <path d="M 367.818386 256.941179 
L 411.806614 256.941179 
" clip-path="url(#pc85a719087)" style="fill: none; stroke-dasharray: 3.375,3.375; stroke-dashoffset: 0; stroke: #3d3d3d; stroke-width: 1.5"/>
   </g>
   <g id="patch_3">
    <path d="M 44.55 260.2 
L 44.55 26.8 
" style="fill: none; stroke: #262626; stroke-width: 0.8; stroke-linejoin: miter; stroke-linecap: square"/>
   </g>
   <g id="patch_4">
    <path d="M 421.2 260.2 
L 421.2 26.8 
" style="fill: none; stroke: #262626; stroke-width: 0.8; stroke-linejoin: miter; stroke-linecap: square"/>
   </g>
   <g id="patch_5">
    <path d="M 44.55 260.2 
L 421.2 260.2 
" style="fill: none; stroke: #262626; stroke-width: 0.8; stroke-linejoin: miter; stroke-linecap: square"/>
   </g>
   <g id="patch_6">
    <path d="M 44.55 26.8 
L 421.2 26.8 
" style="fill: none; stroke: #262626; stroke-width: 0.8; stroke-linejoin: miter; stroke-linecap: square"/>
   </g>
   <g id="text_18">
    <text style="fill: #262626; font: 12px 'Linux Libertine'; text-anchor: middle" x="232.875" y="20.8" transform="rotate(-0, 232.875, 20.8)">Communication Latency (message_size=1B)</text>
   </g>
  </g>
 </g>
 <defs>
  <clipPath id="pc85a719087">
   <rect x="44.55" y="26.8" width="376.65" height="233.4"/>
  </clipPath>
 </defs>
</svg>
